<svg width="54" height="70" viewBox="0 0 54 70" fill="none" xmlns="http://www.w3.org/2000/svg">
<path fill-rule="evenodd" clip-rule="evenodd" d="M27.0273 68.0984L29.6565 65.1685C32.6398 61.7894 35.3232 58.5834 37.7107 55.534L39.6815 52.9625C47.9107 41.997 52.0273 33.2937 52.0273 26.8611C52.0273 13.1304 40.8357 2 27.0273 2C13.219 2 2.02734 13.1304 2.02734 26.8611C2.02734 33.2937 6.14401 41.997 14.3732 52.9625L16.344 55.534C19.75 59.8501 23.3135 64.0383 27.0273 68.0984Z" stroke="#2FDD41" stroke-width="3" stroke-linecap="round" stroke-linejoin="round"/>
<path d="M27.0275 37.0273C32.7805 37.0273 37.4442 32.4149 37.4442 26.7252C37.4442 21.0355 32.7805 16.4231 27.0275 16.4231C21.2745 16.4231 16.6108 21.0355 16.6108 26.7252C16.6108 32.4149 21.2745 37.0273 27.0275 37.0273Z" stroke="#2FDD41" stroke-width="3" stroke-linecap="round" stroke-linejoin="round"/>
</svg>
