<svg width="1507" height="394" viewBox="0 0 1507 394" fill="none" xmlns="http://www.w3.org/2000/svg">
<path d="M502.485 293.555L504.879 295.363L508.512 290.555H502.485V293.555ZM474.205 339.51L471.499 338.216L471.487 338.24L471.476 338.264L474.205 339.51ZM455.015 392.535L454.355 395.462L457.115 396.083L457.898 393.366L455.015 392.535ZM377.75 369.305L376.689 372.111L376.704 372.117L376.719 372.122L377.75 369.305ZM304.02 333.955L305.581 331.393L301.02 328.614V333.955H304.02ZM304.02 393.545V396.545H307.02V393.545H304.02ZM198.98 393.545H195.98V396.545H198.98V393.545ZM198.98 333.955H201.98V328.698L197.454 331.372L198.98 333.955ZM124.24 369.305L123.179 366.499L124.24 369.305ZM47.985 392.535L45.1023 393.366L45.8794 396.063L48.6223 395.467L47.985 392.535ZM28.29 339.51L25.5609 340.756L25.5721 340.78L25.5836 340.804L28.29 339.51ZM0.515 293.555V290.555H-5.51169L-1.8786 295.363L0.515 293.555ZM100.505 288.505L100.191 285.521L100.188 285.522L100.505 288.505ZM184.335 275.375L184.995 278.302L184.335 272.375V275.375ZM34.35 275.375H31.35V278.375H34.35V275.375ZM34.35 99.635V96.635H31.35V99.635H34.35ZM198.98 99.635V102.635H201.98V99.635H198.98ZM198.98 89.03H201.98V86.03H198.98V89.03ZM15.665 89.03H12.665V92.03H15.665V89.03ZM15.665 20.35V17.35H12.665V20.35H15.665ZM198.98 20.35V23.35H201.98V20.35H198.98ZM198.98 1.66499V-1.33501H195.98V1.66499H198.98ZM304.02 1.66499H307.02V-1.33501H304.02V1.66499ZM304.02 20.35H301.02V23.35H304.02V20.35ZM487.335 20.35H490.335V17.35H487.335V20.35ZM487.335 89.03V92.03H490.335V89.03H487.335ZM304.02 89.03V86.03H301.02V89.03H304.02ZM304.02 99.635H301.02V102.635H304.02V99.635ZM468.65 99.635H471.65V96.635H468.65V99.635ZM468.65 275.375V278.375H471.65V275.375H468.65ZM318.665 275.375V272.375L318.005 278.302L318.665 275.375ZM401.99 288.505L401.673 291.488L401.676 291.488L401.99 288.505ZM198.98 165.79V168.79H201.98V165.79H198.98ZM198.98 154.68H201.98V151.68H198.98V154.68ZM136.865 154.68V151.68H133.865V154.68H136.865ZM136.865 165.79H133.865V168.79H136.865V165.79ZM366.135 165.79V168.79H369.135V165.79H366.135ZM366.135 154.68H369.135V151.68H366.135V154.68ZM304.02 154.68V151.68H301.02V154.68H304.02ZM304.02 165.79H301.02V168.79H304.02V165.79ZM198.98 207.705H201.98V204.705H198.98V207.705ZM136.865 207.705V204.705H133.865V207.705H136.865ZM136.865 218.815H133.865V221.815H136.865V218.815ZM198.98 218.815V221.815H201.98V218.815H198.98ZM304.02 207.705V204.705H301.02V207.705H304.02ZM304.02 218.815H301.02V221.815H304.02V218.815ZM366.135 218.815V221.815H369.135V218.815H366.135ZM366.135 207.705H369.135V204.705H366.135V207.705ZM500.091 291.746C488.536 307.04 479.001 322.53 471.499 338.216L476.911 340.804C484.223 325.517 493.541 310.37 504.879 295.363L500.091 291.746ZM471.476 338.264C464.333 353.91 457.888 371.728 452.132 391.704L457.898 393.366C463.588 373.615 469.937 356.083 476.934 340.756L471.476 338.264ZM455.675 389.608C431.919 384.255 406.289 376.552 378.781 366.488L376.719 372.122C404.424 382.258 430.304 390.042 454.355 395.462L455.675 389.608ZM378.811 366.499C351.35 356.117 326.945 344.412 305.581 331.393L302.459 336.517C324.188 349.758 348.937 361.619 376.689 372.111L378.811 366.499ZM301.02 333.955V393.545H307.02V333.955H301.02ZM304.02 390.545H198.98V396.545H304.02V390.545ZM201.98 393.545V333.955H195.98V393.545H201.98ZM197.454 331.372C175.402 344.403 150.647 356.115 123.179 366.499L125.301 372.111C153.046 361.622 178.118 349.767 200.506 336.538L197.454 331.372ZM123.179 366.499C95.6789 376.895 70.4041 384.591 47.3477 389.603L48.6223 395.467C72.0259 390.379 97.5877 382.588 125.301 372.111L123.179 366.499ZM50.8677 391.704C45.1075 371.713 38.4872 353.878 30.9964 338.216L25.5836 340.804C32.9061 356.115 39.4159 373.63 45.1023 393.366L50.8677 391.704ZM31.0191 338.264C23.8484 322.557 14.4724 307.051 2.9086 291.746L-1.8786 295.363C9.45097 310.359 18.5916 325.49 25.5609 340.756L31.0191 338.264ZM0.515 296.555C35.624 296.555 69.0604 294.867 100.822 291.488L100.188 285.522C68.6562 288.876 35.4327 290.555 0.515 290.555V296.555ZM100.819 291.488C132.885 288.113 160.948 283.72 184.995 278.302L183.675 272.448C159.915 277.803 132.092 282.164 100.191 285.521L100.819 291.488ZM184.335 272.375H34.35V278.375H184.335V272.375ZM37.35 275.375V99.635H31.35V275.375H37.35ZM34.35 102.635H198.98V96.635H34.35V102.635ZM201.98 99.635V89.03H195.98V99.635H201.98ZM198.98 86.03H15.665V92.03H198.98V86.03ZM18.665 89.03V20.35H12.665V89.03H18.665ZM15.665 23.35H198.98V17.35H15.665V23.35ZM201.98 20.35V1.66499H195.98V20.35H201.98ZM198.98 4.66499H304.02V-1.33501H198.98V4.66499ZM301.02 1.66499V20.35H307.02V1.66499H301.02ZM304.02 23.35H487.335V17.35H304.02V23.35ZM484.335 20.35V89.03H490.335V20.35H484.335ZM487.335 86.03H304.02V92.03H487.335V86.03ZM301.02 89.03V99.635H307.02V89.03H301.02ZM304.02 102.635H468.65V96.635H304.02V102.635ZM465.65 99.635V275.375H471.65V99.635H465.65ZM468.65 272.375H318.665V278.375H468.65V272.375ZM318.005 278.302C342.049 283.72 369.943 288.113 401.673 291.488L402.307 285.522C370.744 282.164 343.087 277.803 319.325 272.448L318.005 278.302ZM401.676 291.488C433.772 294.867 467.376 296.555 502.485 296.555V290.555C467.567 290.555 434.174 288.876 402.304 285.521L401.676 291.488ZM201.98 165.79V154.68H195.98V165.79H201.98ZM198.98 151.68H136.865V157.68H198.98V151.68ZM133.865 154.68V165.79H139.865V154.68H133.865ZM136.865 168.79H198.98V162.79H136.865V168.79ZM369.135 165.79V154.68H363.135V165.79H369.135ZM366.135 151.68H304.02V157.68H366.135V151.68ZM301.02 154.68V165.79H307.02V154.68H301.02ZM304.02 168.79H366.135V162.79H304.02V168.79ZM198.98 204.705H136.865V210.705H198.98V204.705ZM133.865 207.705V218.815H139.865V207.705H133.865ZM136.865 221.815H198.98V215.815H136.865V221.815ZM201.98 218.815V207.705H195.98V218.815H201.98ZM301.02 207.705V218.815H307.02V207.705H301.02ZM304.02 221.815H366.135V215.815H304.02V221.815ZM369.135 218.815V207.705H363.135V218.815H369.135ZM366.135 204.705H304.02V210.705H366.135V204.705ZM817.605 14.29H814.605V17.29H817.605V14.29ZM990.315 14.29H993.315V11.29H990.315V14.29ZM990.315 100.14V103.14H993.315V100.14H990.315ZM522.685 100.14H519.685V103.14H522.685V100.14ZM522.685 14.29V11.29H519.685V14.29H522.685ZM695.395 14.29V17.29H698.395V14.29H695.395ZM695.395 1.66499V-1.33501H692.395V1.66499H695.395ZM817.605 1.66499H820.605V-1.33501H817.605V1.66499ZM914.06 264.265V261.265H905.013L912.268 266.671L914.06 264.265ZM962.035 296.585L960.509 299.168L960.531 299.181L960.553 299.193L962.035 296.585ZM1011.53 318.3L1013.27 320.741L1018.06 317.317L1012.47 315.454L1011.53 318.3ZM962.54 356.175L964.456 358.484L964.461 358.48L962.54 356.175ZM923.655 392.03L921.93 394.484L924.061 395.983L925.844 394.082L923.655 392.03ZM864.065 346.58L862.099 348.846L862.121 348.865L862.144 348.885L864.065 346.58ZM810.535 294.565L812.732 292.522L807.535 286.933V294.565H810.535ZM798.415 371.83L800.489 373.998L800.491 373.996L798.415 371.83ZM758.015 386.98L757.598 384.009L757.591 384.01L758.015 386.98ZM671.66 391.02L668.743 391.72L669.295 394.02H671.66V391.02ZM668.63 378.395L671.547 377.695L671.544 377.681L671.54 377.667L668.63 378.395ZM664.59 361.225L661.645 361.795L661.656 361.851L661.668 361.907L664.59 361.225ZM656.005 333.45L658.732 332.2L657.008 328.437L653.968 331.247L656.005 333.45ZM582.275 392.03L580.086 394.082L581.89 396.005L584.029 394.464L582.275 392.03ZM542.885 356.175L540.941 358.46L540.967 358.482L540.993 358.503L542.885 356.175ZM494.405 318.3L493.456 315.454L487.867 317.317L492.661 320.741L494.405 318.3ZM543.895 296.585L545.377 299.193L545.399 299.181L545.421 299.168L543.895 296.585ZM591.87 264.265L593.662 266.671L600.917 261.265H591.87V264.265ZM545.915 264.265H542.915V267.265H545.915V264.265ZM545.915 112.26V109.26H542.915V112.26H545.915ZM967.085 112.26H970.085V109.26H967.085V112.26ZM967.085 264.265V267.265H970.085V264.265H967.085ZM844.37 175.89H847.37V172.89H844.37V175.89ZM668.63 175.89V172.89H665.63V175.89H668.63ZM668.63 189.525H665.63V192.525H668.63V189.525ZM844.37 189.525V192.525H847.37V189.525H844.37ZM672.67 317.795L670.618 315.606L665.084 320.795H672.67V317.795ZM692.365 315.775L693.583 318.516L693.705 318.462L693.822 318.397L692.365 315.775ZM696.91 264.265H699.91V261.265H696.91V264.265ZM646.41 264.265V261.265H635.355L644.893 266.853L646.41 264.265ZM696.405 293.555L698.592 295.609L701.167 292.868L697.922 290.967L696.405 293.555ZM810.535 264.265V261.265H807.535V264.265H810.535ZM810.535 293.05H807.535V298.293L812.055 295.636L810.535 293.05ZM859.52 264.265L861.04 266.851L870.547 261.265H859.52V264.265ZM817.605 17.29H990.315V11.29H817.605V17.29ZM987.315 14.29V100.14H993.315V14.29H987.315ZM990.315 97.14H522.685V103.14H990.315V97.14ZM525.685 100.14V14.29H519.685V100.14H525.685ZM522.685 17.29H695.395V11.29H522.685V17.29ZM698.395 14.29V1.66499H692.395V14.29H698.395ZM695.395 4.66499H817.605V-1.33501H695.395V4.66499ZM814.605 1.66499V14.29H820.605V1.66499H814.605ZM912.268 266.671C929.503 279.513 945.585 290.349 960.509 299.168L963.561 294.002C948.859 285.314 932.957 274.604 915.852 261.859L912.268 266.671ZM960.553 299.193C975.555 307.717 992.234 315.032 1010.58 321.146L1012.47 315.454C994.456 309.448 978.141 302.286 963.517 293.977L960.553 299.193ZM1009.78 315.859C993.222 327.687 976.835 340.358 960.619 353.87L964.461 358.48C980.565 345.059 996.835 332.48 1013.27 320.741L1009.78 315.859ZM960.624 353.866C944.739 367.048 931.678 379.086 921.466 389.978L925.844 394.082C935.832 383.427 948.694 371.562 964.456 358.484L960.624 353.866ZM925.381 389.576C903.894 374.468 884.096 359.367 865.986 344.275L862.144 348.885C880.394 364.093 900.323 379.292 921.93 394.484L925.381 389.576ZM866.031 344.314C848.277 328.905 830.51 311.642 812.732 292.522L808.338 296.608C826.246 315.868 844.166 333.282 862.099 348.846L866.031 344.314ZM807.535 294.565V336.48H813.535V294.565H807.535ZM807.535 336.48C807.535 351.83 803.619 362.687 796.339 369.664L800.491 373.996C809.371 365.486 813.535 352.777 813.535 336.48H807.535ZM796.341 369.662C789.293 376.404 776.605 381.341 757.598 384.009L758.432 389.951C777.805 387.232 792.051 382.069 800.489 373.998L796.341 369.662ZM757.591 384.01C738.958 386.672 710.348 388.02 671.66 388.02V394.02C710.405 394.02 739.366 392.675 758.439 389.95L757.591 384.01ZM674.577 390.32L671.547 377.695L665.713 379.095L668.743 391.72L674.577 390.32ZM671.54 377.667C671.211 376.35 669.872 370.66 667.512 360.543L661.668 361.907C664.021 371.99 665.375 377.746 665.72 379.123L671.54 377.667ZM667.535 360.655C665.479 350.028 662.552 340.535 658.732 332.2L653.278 334.7C656.864 342.525 659.661 351.549 661.645 361.795L667.535 360.655ZM653.968 331.247C636.251 347.628 611.783 367.074 580.521 389.596L584.029 394.464C615.387 371.872 640.073 352.266 658.042 335.653L653.968 331.247ZM584.464 389.978C574.242 379.075 561.003 367.03 544.777 353.847L540.993 358.503C557.087 371.58 570.108 383.438 580.086 394.082L584.464 389.978ZM544.829 353.89C528.943 340.37 512.716 327.693 496.149 315.859L492.661 320.741C509.087 332.474 525.18 345.047 540.941 358.46L544.829 353.89ZM495.354 321.146C513.696 315.032 530.375 307.717 545.377 299.193L542.413 293.977C527.789 302.286 511.474 309.448 493.456 315.454L495.354 321.146ZM545.421 299.168C560.345 290.349 576.427 279.513 593.662 266.671L590.078 261.859C572.973 274.604 557.071 285.314 542.369 294.002L545.421 299.168ZM591.87 261.265H545.915V267.265H591.87V261.265ZM548.915 264.265V112.26H542.915V264.265H548.915ZM545.915 115.26H967.085V109.26H545.915V115.26ZM964.085 112.26V264.265H970.085V112.26H964.085ZM967.085 261.265H914.06V267.265H967.085V261.265ZM844.37 172.89H668.63V178.89H844.37V172.89ZM665.63 175.89V189.525H671.63V175.89H665.63ZM668.63 192.525H844.37V186.525H668.63V192.525ZM847.37 189.525V175.89H841.37V189.525H847.37ZM672.67 320.795C677.775 320.795 682.052 320.625 685.475 320.274C688.825 319.931 691.616 319.391 693.583 318.516L691.147 313.034C690.084 313.506 688.078 313.976 684.863 314.306C681.72 314.628 677.665 314.795 672.67 314.795V320.795ZM693.822 318.397C698.314 315.902 699.91 310.733 699.91 304.665H693.91C693.91 310.044 692.476 312.281 690.908 313.153L693.822 318.397ZM699.91 304.665V264.265H693.91V304.665H699.91ZM696.91 261.265H646.41V267.265H696.91V261.265ZM644.893 266.853L694.888 296.143L697.922 290.967L647.927 261.677L644.893 266.853ZM694.218 291.501C683.79 302.602 675.932 310.625 670.618 315.606L674.722 319.984C680.181 314.865 688.147 306.728 698.592 295.609L694.218 291.501ZM807.535 264.265V293.05H813.535V264.265H807.535ZM812.055 295.636L861.04 266.851L858 261.678L809.015 290.464L812.055 295.636ZM859.52 261.265H810.535V267.265H859.52V261.265ZM1506.43 83.475L1509.24 84.5212L1509.61 83.5071L1509.26 82.4857L1506.43 83.475ZM1498.34 105.19L1501.16 106.238L1501.16 106.236L1498.34 105.19ZM1469.56 179.425L1466.81 178.234L1466.17 179.707L1467.04 181.055L1469.56 179.425ZM1478.65 342.035L1476.51 339.936L1476.51 339.936L1478.65 342.035ZM1413 365.265L1410.02 365.621L1410.33 368.202L1412.93 368.264L1413 365.265ZM1393.31 290.02L1396 288.697L1390.31 290.02H1393.31ZM1393.31 386.98V389.98H1396.31V386.98H1393.31ZM1298.87 386.98H1295.87V389.98H1298.87V386.98ZM1298.87 70.85H1301.87V61.207L1296.4 69.1481L1298.87 70.85ZM1283.21 93.575L1280.74 91.8731L1277.51 96.575H1283.21V93.575ZM1287.26 93.575H1290.26V90.575H1287.26V93.575ZM1287.26 161.245V164.245H1290.26V161.245H1287.26ZM1226.15 161.245V158.245H1225.01L1224.16 159.003L1226.15 161.245ZM1221.6 165.285L1223.54 167.575L1223.57 167.552L1223.6 167.527L1221.6 165.285ZM1215.04 170.84L1213.1 168.55L1206.85 173.84H1215.04V170.84ZM1286.75 170.84H1289.75V167.84H1286.75V170.84ZM1286.75 390.01V393.01H1289.75V390.01H1286.75ZM1192.82 390.01H1189.82V393.01H1192.82V390.01ZM1192.82 384.96H1195.82V381.96H1192.82V384.96ZM1137.27 384.96V381.96H1134.27V384.96H1137.27ZM1137.27 390.01V393.01H1140.27V390.01H1137.27ZM1042.33 390.01H1039.33V393.01H1042.33V390.01ZM1042.33 275.88H1045.33V271.392L1041.18 273.108L1042.33 275.88ZM1027.69 281.94L1024.7 282.191L1025.04 286.281L1028.83 284.712L1027.69 281.94ZM1006.98 188.515L1006.52 185.55L1002.76 186.133L1004.2 189.654L1006.98 188.515ZM1068.08 177.405L1068.73 180.335L1068.76 180.329L1068.79 180.322L1068.08 177.405ZM1115.05 161.245L1116.32 163.965L1115.05 158.245V161.245ZM1019.1 161.245H1016.1V164.245H1019.1V161.245ZM1019.1 93.575V90.575H1016.1V93.575H1019.1ZM1073.14 93.575V96.575H1076.14V93.575H1073.14ZM1073.14 82.97H1076.14V79.97H1073.14V82.97ZM1028.69 82.97H1025.69V85.97H1028.69V82.97ZM1028.69 14.29V11.29H1025.69V14.29H1028.69ZM1073.14 14.29V17.29H1076.14V14.29H1073.14ZM1073.14 0.654972V-2.34503H1070.14V0.654972H1073.14ZM1175.65 0.654972H1178.65V-2.34503H1175.65V0.654972ZM1175.65 14.29H1172.65V17.29H1175.65V14.29ZM1229.69 14.29H1232.69V11.29H1229.69V14.29ZM1229.69 31.965H1226.69L1232.37 33.3066L1229.69 31.965ZM1233.22 24.39L1230.54 23.0483L1230.5 23.1272L1230.46 23.2082L1233.22 24.39ZM1236.76 17.32L1239.44 18.6616L1239.48 18.5828L1239.51 18.5017L1236.76 17.32ZM1241.3 6.71498L1242.34 3.89996L1239.66 2.91532L1238.54 5.53323L1241.3 6.71498ZM1298.87 27.925L1297.83 30.74L1301.87 32.2274V27.925H1298.87ZM1298.87 9.74498V6.74498H1295.87V9.74498H1298.87ZM1480.67 9.74498L1483.5 8.75565L1482.8 6.74498H1480.67V9.74498ZM1175.65 82.97V79.97H1172.65V82.97H1175.65ZM1175.65 93.575H1172.65V96.575H1175.65V93.575ZM1193.83 93.575V96.575H1195.37L1196.27 95.3187L1193.83 93.575ZM1201.41 82.97L1203.85 84.7137L1207.23 79.97H1201.41V82.97ZM1393.31 95.09V92.09H1390.31V95.09H1393.31ZM1393.31 155.185H1390.31L1396 156.496L1393.31 155.185ZM1410.98 95.09L1413.98 95.1512L1414.04 92.09H1410.98V95.09ZM1393.31 271.335H1390.31V275.885L1394.49 274.092L1393.31 271.335ZM1404.92 262.245L1402.52 260.445L1404.92 262.245ZM1393.31 208.21L1395.73 206.445L1390.31 198.984V208.21H1393.31ZM1137.27 245.58H1134.27V248.58H1137.27V245.58ZM1192.82 245.58V248.58H1195.82V245.58H1192.82ZM1192.82 232.45H1195.82V229.45H1192.82V232.45ZM1137.27 232.45V229.45H1134.27V232.45H1137.27ZM1137.27 302.14V299.14H1134.27V302.14H1137.27ZM1137.27 315.775H1134.27V318.775H1137.27V315.775ZM1192.82 315.775V318.775H1195.82V315.775H1192.82ZM1192.82 302.14H1195.82V299.14H1192.82V302.14ZM1503.61 82.4288L1495.53 104.144L1501.16 106.236L1509.24 84.5212L1503.61 82.4288ZM1495.53 104.142C1481.73 141.186 1472.16 165.86 1466.81 178.234L1472.31 180.616C1477.74 168.077 1487.36 143.261 1501.16 106.238L1495.53 104.142ZM1467.04 181.055C1489.1 215.144 1499.89 245.207 1499.89 271.335H1505.89C1505.89 243.596 1494.46 212.386 1472.08 177.795L1467.04 181.055ZM1499.89 271.335C1499.89 301.451 1491.96 324.164 1476.51 339.936L1480.79 344.134C1497.66 326.913 1505.89 302.492 1505.89 271.335H1499.89ZM1476.51 339.936C1461.4 355.367 1440.39 362.924 1413.07 362.266L1412.93 368.264C1441.49 368.952 1464.26 361.023 1480.79 344.134L1476.51 339.936ZM1415.98 364.909C1412.25 333.74 1405.63 308.296 1396 288.697L1390.61 291.343C1399.84 310.124 1406.34 334.844 1410.02 365.621L1415.98 364.909ZM1390.31 290.02V386.98H1396.31V290.02H1390.31ZM1393.31 383.98H1298.87V389.98H1393.31V383.98ZM1301.87 386.98V70.85H1295.87V386.98H1301.87ZM1296.4 69.1481L1280.74 91.8731L1285.69 95.2769L1301.34 72.5519L1296.4 69.1481ZM1283.21 96.575H1287.26V90.575H1283.21V96.575ZM1284.26 93.575V161.245H1290.26V93.575H1284.26ZM1287.26 158.245H1226.15V164.245H1287.26V158.245ZM1224.16 159.003L1219.61 163.043L1223.6 167.527L1228.14 163.487L1224.16 159.003ZM1219.67 162.995L1213.1 168.55L1216.98 173.13L1223.54 167.575L1219.67 162.995ZM1215.04 173.84H1286.75V167.84H1215.04V173.84ZM1283.75 170.84V390.01H1289.75V170.84H1283.75ZM1286.75 387.01H1192.82V393.01H1286.75V387.01ZM1195.82 390.01V384.96H1189.82V390.01H1195.82ZM1192.82 381.96H1137.27V387.96H1192.82V381.96ZM1134.27 384.96V390.01H1140.27V384.96H1134.27ZM1137.27 387.01H1042.33V393.01H1137.27V387.01ZM1045.33 390.01V275.88H1039.33V390.01H1045.33ZM1041.18 273.108L1026.54 279.168L1028.83 284.712L1043.48 278.652L1041.18 273.108ZM1030.67 281.689C1027.63 245.439 1020.67 213.985 1009.76 187.376L1004.2 189.654C1014.83 215.565 1021.68 246.394 1024.7 282.191L1030.67 281.689ZM1007.44 191.48C1031.38 187.77 1051.82 184.056 1068.73 180.335L1067.44 174.475C1050.69 178.161 1030.38 181.853 1006.52 185.55L1007.44 191.48ZM1068.79 180.322C1085.8 176.239 1101.64 170.79 1116.32 163.965L1113.78 158.525C1099.5 165.167 1084.04 170.491 1067.38 174.488L1068.79 180.322ZM1115.05 158.245H1019.1V164.245H1115.05V158.245ZM1022.1 161.245V93.575H1016.1V161.245H1022.1ZM1019.1 96.575H1073.14V90.575H1019.1V96.575ZM1076.14 93.575V82.97H1070.14V93.575H1076.14ZM1073.14 79.97H1028.69V85.97H1073.14V79.97ZM1031.69 82.97V14.29H1025.69V82.97H1031.69ZM1028.69 17.29H1073.14V11.29H1028.69V17.29ZM1076.14 14.29V0.654972H1070.14V14.29H1076.14ZM1073.14 3.65497H1175.65V-2.34503H1073.14V3.65497ZM1172.65 0.654972V14.29H1178.65V0.654972H1172.65ZM1175.65 17.29H1229.69V11.29H1175.65V17.29ZM1226.69 14.29V31.965H1232.69V14.29H1226.69ZM1232.37 33.3066C1233.74 30.5695 1234.94 27.9907 1235.98 25.5717L1230.46 23.2082C1229.48 25.5026 1228.33 27.9738 1227 30.6234L1232.37 33.3066ZM1235.9 25.7316C1235.91 25.7263 1235.91 25.7211 1235.91 25.7158C1235.91 25.7106 1235.92 25.7053 1235.92 25.7001C1235.92 25.6948 1235.92 25.6896 1235.93 25.6843C1235.93 25.679 1235.93 25.6738 1235.93 25.6685C1235.94 25.6633 1235.94 25.6581 1235.94 25.6528C1235.95 25.6476 1235.95 25.6423 1235.95 25.6371C1235.95 25.6318 1235.96 25.6266 1235.96 25.6213C1235.96 25.6161 1235.96 25.6108 1235.97 25.6056C1235.97 25.6004 1235.97 25.5951 1235.97 25.5899C1235.98 25.5847 1235.98 25.5794 1235.98 25.5742C1235.98 25.5689 1235.99 25.5637 1235.99 25.5585C1235.99 25.5533 1236 25.548 1236 25.5428C1236 25.5376 1236 25.5323 1236.01 25.5271C1236.01 25.5219 1236.01 25.5167 1236.01 25.5114C1236.02 25.5062 1236.02 25.501 1236.02 25.4958C1236.02 25.4905 1236.03 25.4853 1236.03 25.4801C1236.03 25.4749 1236.03 25.4697 1236.04 25.4644C1236.04 25.4592 1236.04 25.454 1236.04 25.4488C1236.05 25.4436 1236.05 25.4384 1236.05 25.4332C1236.06 25.4279 1236.06 25.4227 1236.06 25.4175C1236.06 25.4123 1236.07 25.4071 1236.07 25.4019C1236.07 25.3967 1236.07 25.3915 1236.08 25.3863C1236.08 25.3811 1236.08 25.3759 1236.08 25.3707C1236.09 25.3655 1236.09 25.3603 1236.09 25.3551C1236.09 25.3499 1236.1 25.3447 1236.1 25.3395C1236.1 25.3343 1236.1 25.3291 1236.11 25.3239C1236.11 25.3187 1236.11 25.3135 1236.11 25.3083C1236.12 25.3031 1236.12 25.2979 1236.12 25.2928C1236.13 25.2876 1236.13 25.2824 1236.13 25.2772C1236.13 25.272 1236.14 25.2668 1236.14 25.2616C1236.14 25.2565 1236.14 25.2513 1236.15 25.2461C1236.15 25.2409 1236.15 25.2357 1236.15 25.2306C1236.16 25.2254 1236.16 25.2202 1236.16 25.215C1236.16 25.2099 1236.17 25.2047 1236.17 25.1995C1236.17 25.1943 1236.17 25.1892 1236.18 25.184C1236.18 25.1788 1236.18 25.1736 1236.18 25.1685C1236.19 25.1633 1236.19 25.1581 1236.19 25.153C1236.2 25.1478 1236.2 25.1427 1236.2 25.1375C1236.2 25.1323 1236.21 25.1272 1236.21 25.122C1236.21 25.1168 1236.21 25.1117 1236.22 25.1065C1236.22 25.1014 1236.22 25.0962 1236.22 25.0911C1236.23 25.0859 1236.23 25.0807 1236.23 25.0756C1236.23 25.0704 1236.24 25.0653 1236.24 25.0601C1236.24 25.055 1236.24 25.0498 1236.25 25.0447C1236.25 25.0396 1236.25 25.0344 1236.25 25.0293C1236.26 25.0241 1236.26 25.019 1236.26 25.0138C1236.26 25.0087 1236.27 25.0035 1236.27 24.9984C1236.27 24.9933 1236.28 24.9881 1236.28 24.983C1236.28 24.9779 1236.28 24.9727 1236.29 24.9676C1236.29 24.9624 1236.29 24.9573 1236.29 24.9522C1236.3 24.9471 1236.3 24.9419 1236.3 24.9368C1236.3 24.9317 1236.31 24.9265 1236.31 24.9214C1236.31 24.9163 1236.31 24.9112 1236.32 24.906C1236.32 24.9009 1236.32 24.8958 1236.32 24.8907C1236.33 24.8855 1236.33 24.8804 1236.33 24.8753C1236.33 24.8702 1236.34 24.8651 1236.34 24.8599C1236.34 24.8548 1236.34 24.8497 1236.35 24.8446C1236.35 24.8395 1236.35 24.8344 1236.35 24.8293C1236.36 24.8242 1236.36 24.819 1236.36 24.8139C1236.36 24.8088 1236.37 24.8037 1236.37 24.7986C1236.37 24.7935 1236.37 24.7884 1236.38 24.7833C1236.38 24.7782 1236.38 24.7731 1236.39 24.768C1236.39 24.7629 1236.39 24.7578 1236.39 24.7527C1236.4 24.7476 1236.4 24.7425 1236.4 24.7374C1236.4 24.7323 1236.41 24.7272 1236.41 24.7221C1236.41 24.717 1236.41 24.7119 1236.42 24.7068C1236.42 24.7017 1236.42 24.6967 1236.42 24.6916C1236.43 24.6865 1236.43 24.6814 1236.43 24.6763C1236.43 24.6712 1236.44 24.6661 1236.44 24.661C1236.44 24.656 1236.44 24.6509 1236.45 24.6458C1236.45 24.6407 1236.45 24.6356 1236.45 24.6306C1236.46 24.6255 1236.46 24.6204 1236.46 24.6153C1236.46 24.6103 1236.47 24.6052 1236.47 24.6001C1236.47 24.595 1236.47 24.59 1236.48 24.5849C1236.48 24.5798 1236.48 24.5748 1236.48 24.5697C1236.49 24.5646 1236.49 24.5596 1236.49 24.5545C1236.49 24.5494 1236.5 24.5444 1236.5 24.5393C1236.5 24.5342 1236.5 24.5292 1236.51 24.5241C1236.51 24.5191 1236.51 24.514 1236.51 24.5089C1236.52 24.5039 1236.52 24.4988 1236.52 24.4938C1236.52 24.4887 1236.53 24.4837 1236.53 24.4786C1236.53 24.4736 1236.53 24.4685 1236.54 24.4635C1236.54 24.4584 1236.54 24.4534 1236.54 24.4483C1236.55 24.4433 1236.55 24.4382 1236.55 24.4332C1236.56 24.4281 1236.56 24.4231 1236.56 24.418C1236.56 24.413 1236.57 24.408 1236.57 24.4029C1236.57 24.3979 1236.57 24.3928 1236.58 24.3878C1236.58 24.3828 1236.58 24.3777 1236.58 24.3727C1236.59 24.3677 1236.59 24.3626 1236.59 24.3576C1236.59 24.3526 1236.6 24.3475 1236.6 24.3425C1236.6 24.3375 1236.6 24.3325 1236.61 24.3274C1236.61 24.3224 1236.61 24.3174 1236.61 24.3123C1236.62 24.3073 1236.62 24.3023 1236.62 24.2973C1236.62 24.2923 1236.63 24.2872 1236.63 24.2822C1236.63 24.2772 1236.63 24.2722 1236.64 24.2672C1236.64 24.2622 1236.64 24.2571 1236.64 24.2521C1236.65 24.2471 1236.65 24.2421 1236.65 24.2371C1236.65 24.2321 1236.66 24.2271 1236.66 24.2221C1236.66 24.217 1236.66 24.212 1236.67 24.207C1236.67 24.202 1236.67 24.197 1236.67 24.192C1236.68 24.187 1236.68 24.182 1236.68 24.177C1236.68 24.172 1236.69 24.167 1236.69 24.162C1236.69 24.157 1236.69 24.152 1236.7 24.147C1236.7 24.142 1236.7 24.137 1236.7 24.132C1236.71 24.127 1236.71 24.1221 1236.71 24.1171C1236.71 24.1121 1236.72 24.1071 1236.72 24.1021C1236.72 24.0971 1236.72 24.0921 1236.73 24.0871C1236.73 24.0821 1236.73 24.0772 1236.73 24.0722C1236.74 24.0672 1236.74 24.0622 1236.74 24.0572C1236.74 24.0523 1236.75 24.0473 1236.75 24.0423C1236.75 24.0373 1236.75 24.0323 1236.76 24.0274C1236.76 24.0224 1236.76 24.0174 1236.76 24.0124C1236.77 24.0075 1236.77 24.0025 1236.77 23.9975C1236.77 23.9926 1236.78 23.9876 1236.78 23.9826C1236.78 23.9777 1236.78 23.9727 1236.79 23.9677C1236.79 23.9628 1236.79 23.9578 1236.79 23.9528C1236.8 23.9479 1236.8 23.9429 1236.8 23.938C1236.8 23.933 1236.81 23.928 1236.81 23.9231C1236.81 23.9181 1236.81 23.9132 1236.81 23.9082C1236.82 23.9033 1236.82 23.8983 1236.82 23.8933C1236.82 23.8884 1236.83 23.8834 1236.83 23.8785C1236.83 23.8735 1236.83 23.8686 1236.84 23.8636C1236.84 23.8587 1236.84 23.8538 1236.84 23.8488C1236.85 23.8439 1236.85 23.8389 1236.85 23.834C1236.85 23.829 1236.86 23.8241 1236.86 23.8192C1236.86 23.8142 1236.86 23.8093 1236.87 23.8043C1236.87 23.7994 1236.87 23.7945 1236.87 23.7895C1236.88 23.7846 1236.88 23.7797 1236.88 23.7747C1236.88 23.7698 1236.89 23.7649 1236.89 23.7599C1236.89 23.755 1236.89 23.7501 1236.9 23.7452C1236.9 23.7402 1236.9 23.7353 1236.9 23.7304C1236.91 23.7255 1236.91 23.7205 1236.91 23.7156C1236.91 23.7107 1236.92 23.7058 1236.92 23.7009C1236.92 23.6959 1236.92 23.691 1236.93 23.6861C1236.93 23.6812 1236.93 23.6763 1236.93 23.6714C1236.94 23.6665 1236.94 23.6615 1236.94 23.6566C1236.94 23.6517 1236.95 23.6468 1236.95 23.6419C1236.95 23.637 1236.95 23.6321 1236.96 23.6272C1236.96 23.6223 1236.96 23.6174 1236.96 23.6125C1236.97 23.6076 1236.97 23.6027 1236.97 23.5978C1236.97 23.5929 1236.98 23.588 1236.98 23.5831C1236.98 23.5782 1236.98 23.5733 1236.98 23.5684C1236.99 23.5635 1236.99 23.5586 1236.99 23.5537C1236.99 23.5488 1237 23.5439 1237 23.539C1237 23.5341 1237 23.5292 1237.01 23.5243C1237.01 23.5195 1237.01 23.5146 1237.01 23.5097C1237.02 23.5048 1237.02 23.4999 1237.02 23.495C1237.02 23.4902 1237.03 23.4853 1237.03 23.4804C1237.03 23.4755 1237.03 23.4706 1237.04 23.4658C1237.04 23.4609 1237.04 23.456 1237.04 23.4511C1237.05 23.4462 1237.05 23.4414 1237.05 23.4365C1237.05 23.4316 1237.06 23.4268 1237.06 23.4219C1237.06 23.417 1237.06 23.4121 1237.07 23.4073C1237.07 23.4024 1237.07 23.3975 1237.07 23.3927C1237.08 23.3878 1237.08 23.3829 1237.08 23.3781C1237.08 23.3732 1237.08 23.3684 1237.09 23.3635C1237.09 23.3587 1237.09 23.3538 1237.09 23.3489C1237.1 23.3441 1237.1 23.3392 1237.1 23.3344C1237.1 23.3295 1237.11 23.3247 1237.11 23.3198C1237.11 23.3149 1237.11 23.3101 1237.12 23.3053C1237.12 23.3004 1237.12 23.2956 1237.12 23.2907C1237.13 23.2859 1237.13 23.281 1237.13 23.2762C1237.13 23.2713 1237.14 23.2665 1237.14 23.2616C1237.14 23.2568 1237.14 23.252 1237.15 23.2471C1237.15 23.2423 1237.15 23.2374 1237.15 23.2326C1237.16 23.2278 1237.16 23.2229 1237.16 23.2181C1237.16 23.2133 1237.16 23.2084 1237.17 23.2036C1237.17 23.1988 1237.17 23.1939 1237.17 23.1891C1237.18 23.1843 1237.18 23.1795 1237.18 23.1746C1237.18 23.1698 1237.19 23.165 1237.19 23.1602C1237.19 23.1553 1237.19 23.1505 1237.2 23.1457C1237.2 23.1409 1237.2 23.136 1237.2 23.1312C1237.21 23.1264 1237.21 23.1216 1237.21 23.1168C1237.21 23.112 1237.22 23.1071 1237.22 23.1023C1237.22 23.0975 1237.22 23.0927 1237.23 23.0879C1237.23 23.0831 1237.23 23.0783 1237.23 23.0735C1237.23 23.0687 1237.24 23.0639 1237.24 23.059C1237.24 23.0542 1237.24 23.0494 1237.25 23.0446C1237.25 23.0398 1237.25 23.035 1237.25 23.0302C1237.26 23.0254 1237.26 23.0206 1237.26 23.0158C1237.26 23.011 1237.27 23.0062 1237.27 23.0014C1237.27 22.9966 1237.27 22.9918 1237.28 22.9871C1237.28 22.9823 1237.28 22.9775 1237.28 22.9727C1237.29 22.9679 1237.29 22.9631 1237.29 22.9583C1237.29 22.9535 1237.29 22.9487 1237.3 22.944C1237.3 22.9392 1237.3 22.9344 1237.3 22.9296C1237.31 22.9248 1237.31 22.92 1237.31 22.9153C1237.31 22.9105 1237.32 22.9057 1237.32 22.9009C1237.32 22.8961 1237.32 22.8914 1237.33 22.8866C1237.33 22.8818 1237.33 22.877 1237.33 22.8723C1237.34 22.8675 1237.34 22.8627 1237.34 22.858C1237.34 22.8532 1237.34 22.8484 1237.35 22.8437C1237.35 22.8389 1237.35 22.8341 1237.35 22.8294C1237.36 22.8246 1237.36 22.8198 1237.36 22.8151C1237.36 22.8103 1237.37 22.8055 1237.37 22.8008C1237.37 22.796 1237.37 22.7913 1237.38 22.7865C1237.38 22.7817 1237.38 22.777 1237.38 22.7722C1237.39 22.7675 1237.39 22.7627 1237.39 22.758C1237.39 22.7532 1237.39 22.7485 1237.4 22.7437C1237.4 22.739 1237.4 22.7342 1237.4 22.7295C1237.41 22.7247 1237.41 22.72 1237.41 22.7152C1237.41 22.7105 1237.42 22.7058 1237.42 22.701C1237.42 22.6963 1237.42 22.6915 1237.43 22.6868C1237.43 22.6821 1237.43 22.6773 1237.43 22.6726C1237.44 22.6678 1237.44 22.6631 1237.44 22.6584C1237.44 22.6536 1237.44 22.6489 1237.45 22.6442C1237.45 22.6395 1237.45 22.6347 1237.45 22.63C1237.46 22.6253 1237.46 22.6205 1237.46 22.6158C1237.46 22.6111 1237.47 22.6064 1237.47 22.6016C1237.47 22.5969 1237.47 22.5922 1237.48 22.5875C1237.48 22.5827 1237.48 22.578 1237.48 22.5733C1237.48 22.5686 1237.49 22.5639 1237.49 22.5592C1237.49 22.5544 1237.49 22.5497 1237.5 22.545C1237.5 22.5403 1237.5 22.5356 1237.5 22.5309C1237.51 22.5262 1237.51 22.5215 1237.51 22.5167C1237.51 22.512 1237.52 22.5073 1237.52 22.5026C1237.52 22.4979 1237.52 22.4932 1237.52 22.4885C1237.53 22.4838 1237.53 22.4791 1237.53 22.4744C1237.53 22.4697 1237.54 22.465 1237.54 22.4603C1237.54 22.4556 1237.54 22.4509 1237.55 22.4462C1237.55 22.4415 1237.55 22.4368 1237.55 22.4321C1237.56 22.4274 1237.56 22.4228 1237.56 22.4181C1237.56 22.4134 1237.56 22.4087 1237.57 22.404C1237.57 22.3993 1237.57 22.3946 1237.57 22.3899C1237.58 22.3853 1237.58 22.3806 1237.58 22.3759C1237.58 22.3712 1237.59 22.3665 1237.59 22.3618C1237.59 22.3572 1237.59 22.3525 1237.6 22.3478C1237.6 22.3431 1237.6 22.3385 1237.6 22.3338C1237.6 22.3291 1237.61 22.3244 1237.61 22.3198C1237.61 22.3151 1237.61 22.3104 1237.62 22.3057C1237.62 22.3011 1237.62 22.2964 1237.62 22.2917C1237.63 22.2871 1237.63 22.2824 1237.63 22.2777C1237.63 22.2731 1237.63 22.2684 1237.64 22.2638C1237.64 22.2591 1237.64 22.2544 1237.64 22.2498C1237.65 22.2451 1237.65 22.2405 1237.65 22.2358C1237.65 22.2311 1237.66 22.2265 1237.66 22.2218C1237.66 22.2172 1237.66 22.2125 1237.67 22.2079C1237.67 22.2032 1237.67 22.1986 1237.67 22.1939C1237.67 22.1893 1237.68 22.1846 1237.68 22.18C1237.68 22.1753 1237.68 22.1707 1237.69 22.166C1237.69 22.1614 1237.69 22.1568 1237.69 22.1521C1237.7 22.1475 1237.7 22.1428 1237.7 22.1382C1237.7 22.1336 1237.7 22.1289 1237.71 22.1243C1237.71 22.1196 1237.71 22.115 1237.71 22.1104C1237.72 22.1057 1237.72 22.1011 1237.72 22.0965C1237.72 22.0919 1237.73 22.0872 1237.73 22.0826C1237.73 22.078 1237.73 22.0733 1237.73 22.0687C1237.74 22.0641 1237.74 22.0595 1237.74 22.0548C1237.74 22.0502 1237.75 22.0456 1237.75 22.041C1237.75 22.0363 1237.75 22.0317 1237.76 22.0271C1237.76 22.0225 1237.76 22.0179 1237.76 22.0133C1237.76 22.0086 1237.77 22.004 1237.77 21.9994C1237.77 21.9948 1237.77 21.9902 1237.78 21.9856C1237.78 21.981 1237.78 21.9764 1237.78 21.9718C1237.79 21.9671 1237.79 21.9625 1237.79 21.9579C1237.79 21.9533 1237.79 21.9487 1237.8 21.9441C1237.8 21.9395 1237.8 21.9349 1237.8 21.9303C1237.81 21.9257 1237.81 21.9211 1237.81 21.9165C1237.81 21.9119 1237.82 21.9073 1237.82 21.9027C1237.82 21.8981 1237.82 21.8935 1237.82 21.8889C1237.83 21.8844 1237.83 21.8798 1237.83 21.8752C1237.83 21.8706 1237.84 21.866 1237.84 21.8614C1237.84 21.8568 1237.84 21.8522 1237.85 21.8476C1237.85 21.8431 1237.85 21.8385 1237.85 21.8339C1237.85 21.8293 1237.86 21.8247 1237.86 21.8202C1237.86 21.8156 1237.86 21.811 1237.87 21.8064C1237.87 21.8018 1237.87 21.7973 1237.87 21.7927C1237.88 21.7881 1237.88 21.7835 1237.88 21.779C1237.88 21.7744 1237.88 21.7698 1237.89 21.7653C1237.89 21.7607 1237.89 21.7561 1237.89 21.7516C1237.9 21.747 1237.9 21.7424 1237.9 21.7379C1237.9 21.7333 1237.9 21.7287 1237.91 21.7242C1237.91 21.7196 1237.91 21.715 1237.91 21.7105C1237.92 21.7059 1237.92 21.7014 1237.92 21.6968C1237.92 21.6923 1237.93 21.6877 1237.93 21.6832C1237.93 21.6786 1237.93 21.674 1237.93 21.6695C1237.94 21.6649 1237.94 21.6604 1237.94 21.6558C1237.94 21.6513 1237.95 21.6467 1237.95 21.6422C1237.95 21.6376 1237.95 21.6331 1237.95 21.6286C1237.96 21.624 1237.96 21.6195 1237.96 21.6149C1237.96 21.6104 1237.97 21.6059 1237.97 21.6013C1237.97 21.5968 1237.97 21.5922 1237.98 21.5877C1237.98 21.5832 1237.98 21.5786 1237.98 21.5741C1237.98 21.5696 1237.99 21.565 1237.99 21.5605C1237.99 21.556 1237.99 21.5514 1238 21.5469C1238 21.5424 1238 21.5379 1238 21.5333C1238 21.5288 1238.01 21.5243 1238.01 21.5198C1238.01 21.5152 1238.01 21.5107 1238.02 21.5062C1238.02 21.5017 1238.02 21.4972 1238.02 21.4926C1238.03 21.4881 1238.03 21.4836 1238.03 21.4791C1238.03 21.4746 1238.03 21.4701 1238.04 21.4655C1238.04 21.461 1238.04 21.4565 1238.04 21.452C1238.05 21.4475 1238.05 21.443 1238.05 21.4385C1238.05 21.434 1238.05 21.4295 1238.06 21.425C1238.06 21.4204 1238.06 21.4159 1238.06 21.4114C1238.07 21.4069 1238.07 21.4024 1238.07 21.3979C1238.07 21.3934 1238.07 21.3889 1238.08 21.3844C1238.08 21.3799 1238.08 21.3755 1238.08 21.371C1238.09 21.3665 1238.09 21.362 1238.09 21.3575C1238.09 21.353 1238.09 21.3485 1238.1 21.344C1238.1 21.3395 1238.1 21.335 1238.1 21.3305C1238.11 21.326 1238.11 21.3216 1238.11 21.3171C1238.11 21.3126 1238.11 21.3081 1238.12 21.3036C1238.12 21.2991 1238.12 21.2947 1238.12 21.2902C1238.13 21.2857 1238.13 21.2812 1238.13 21.2767C1238.13 21.2723 1238.14 21.2678 1238.14 21.2633C1238.14 21.2589 1238.14 21.2544 1238.14 21.2499C1238.15 21.2454 1238.15 21.241 1238.15 21.2365C1238.15 21.232 1238.16 21.2276 1238.16 21.2231C1238.16 21.2186 1238.16 21.2142 1238.16 21.2097C1238.17 21.2052 1238.17 21.2008 1238.17 21.1963C1238.17 21.1918 1238.18 21.1874 1238.18 21.1829C1238.18 21.1785 1238.18 21.174 1238.18 21.1695C1238.19 21.1651 1238.19 21.1606 1238.19 21.1562C1238.19 21.1517 1238.2 21.1473 1238.2 21.1428C1238.2 21.1384 1238.2 21.1339 1238.2 21.1295C1238.21 21.125 1238.21 21.1206 1238.21 21.1161C1238.21 21.1117 1238.22 21.1072 1238.22 21.1028C1238.22 21.0984 1238.22 21.0939 1238.22 21.0895C1238.23 21.085 1238.23 21.0806 1238.23 21.0761C1238.23 21.0717 1238.24 21.0673 1238.24 21.0628C1238.24 21.0584 1238.24 21.054 1238.24 21.0495C1238.25 21.0451 1238.25 21.0407 1238.25 21.0362C1238.25 21.0318 1238.26 21.0274 1238.26 21.0229C1238.26 21.0185 1238.26 21.0141 1238.26 21.0097C1238.27 21.0052 1238.27 21.0008 1238.27 20.9964C1238.27 20.992 1238.28 20.9876 1238.28 20.9831C1238.28 20.9787 1238.28 20.9743 1238.28 20.9699C1238.29 20.9655 1238.29 20.961 1238.29 20.9566C1238.29 20.9522 1238.3 20.9478 1238.3 20.9434C1238.3 20.939 1238.3 20.9346 1238.3 20.9301C1238.31 20.9257 1238.31 20.9213 1238.31 20.9169C1238.31 20.9125 1238.32 20.9081 1238.32 20.9037C1238.32 20.8993 1238.32 20.8949 1238.32 20.8905C1238.33 20.8861 1238.33 20.8817 1238.33 20.8773C1238.33 20.8729 1238.33 20.8685 1238.34 20.8641C1238.34 20.8597 1238.34 20.8553 1238.34 20.8509C1238.35 20.8465 1238.35 20.8421 1238.35 20.8377C1238.35 20.8333 1238.35 20.8289 1238.36 20.8245C1238.36 20.8202 1238.36 20.8158 1238.36 20.8114C1238.37 20.807 1238.37 20.8026 1238.37 20.7982C1238.37 20.7938 1238.37 20.7895 1238.38 20.7851C1238.38 20.7807 1238.38 20.7763 1238.38 20.7719C1238.39 20.7676 1238.39 20.7632 1238.39 20.7588C1238.39 20.7544 1238.39 20.75 1238.4 20.7457C1238.4 20.7413 1238.4 20.7369 1238.4 20.7326C1238.41 20.7282 1238.41 20.7238 1238.41 20.7194C1238.41 20.7151 1238.41 20.7107 1238.42 20.7063C1238.42 20.702 1238.42 20.6976 1238.42 20.6932C1238.42 20.6889 1238.43 20.6845 1238.43 20.6802C1238.43 20.6758 1238.43 20.6714 1238.44 20.6671C1238.44 20.6627 1238.44 20.6584 1238.44 20.654C1238.44 20.6496 1238.45 20.6453 1238.45 20.6409C1238.45 20.6366 1238.45 20.6322 1238.46 20.6279C1238.46 20.6235 1238.46 20.6192 1238.46 20.6148C1238.46 20.6105 1238.47 20.6061 1238.47 20.6018C1238.47 20.5974 1238.47 20.5931 1238.47 20.5888C1238.48 20.5844 1238.48 20.5801 1238.48 20.5757C1238.48 20.5714 1238.49 20.567 1238.49 20.5627C1238.49 20.5584 1238.49 20.554 1238.49 20.5497C1238.5 20.5454 1238.5 20.541 1238.5 20.5367C1238.5 20.5324 1238.51 20.528 1238.51 20.5237C1238.51 20.5194 1238.51 20.515 1238.51 20.5107C1238.52 20.5064 1238.52 20.5021 1238.52 20.4977C1238.52 20.4934 1238.52 20.4891 1238.53 20.4848C1238.53 20.4804 1238.53 20.4761 1238.53 20.4718C1238.54 20.4675 1238.54 20.4632 1238.54 20.4588C1238.54 20.4545 1238.54 20.4502 1238.55 20.4459C1238.55 20.4416 1238.55 20.4373 1238.55 20.4329C1238.55 20.4286 1238.56 20.4243 1238.56 20.42C1238.56 20.4157 1238.56 20.4114 1238.57 20.4071C1238.57 20.4028 1238.57 20.3985 1238.57 20.3942C1238.57 20.3899 1238.58 20.3856 1238.58 20.3813C1238.58 20.377 1238.58 20.3727 1238.58 20.3684C1238.59 20.3641 1238.59 20.3598 1238.59 20.3555C1238.59 20.3512 1238.6 20.3469 1238.6 20.3426C1238.6 20.3383 1238.6 20.334 1238.6 20.3297C1238.61 20.3254 1238.61 20.3211 1238.61 20.3168C1238.61 20.3125 1238.61 20.3082 1238.62 20.304C1238.62 20.2997 1238.62 20.2954 1238.62 20.2911C1238.63 20.2868 1238.63 20.2825 1238.63 20.2782C1238.63 20.274 1238.63 20.2697 1238.64 20.2654C1238.64 20.2611 1238.64 20.2568 1238.64 20.2526C1238.64 20.2483 1238.65 20.244 1238.65 20.2397C1238.65 20.2355 1238.65 20.2312 1238.66 20.2269C1238.66 20.2227 1238.66 20.2184 1238.66 20.2141C1238.66 20.2098 1238.67 20.2056 1238.67 20.2013C1238.67 20.197 1238.67 20.1928 1238.67 20.1885C1238.68 20.1842 1238.68 20.18 1238.68 20.1757C1238.68 20.1715 1238.69 20.1672 1238.69 20.1629C1238.69 20.1587 1238.69 20.1544 1238.69 20.1502C1238.7 20.1459 1238.7 20.1417 1238.7 20.1374C1238.7 20.1332 1238.7 20.1289 1238.71 20.1247C1238.71 20.1204 1238.71 20.1162 1238.71 20.1119C1238.72 20.1077 1238.72 20.1034 1238.72 20.0992C1238.72 20.0949 1238.72 20.0907 1238.73 20.0864C1238.73 20.0822 1238.73 20.0779 1238.73 20.0737C1238.73 20.0695 1238.74 20.0652 1238.74 20.061C1238.74 20.0567 1238.74 20.0525 1238.74 20.0483C1238.75 20.044 1238.75 20.0398 1238.75 20.0356C1238.75 20.0313 1238.76 20.0271 1238.76 20.0229C1238.76 20.0186 1238.76 20.0144 1238.76 20.0102C1238.77 20.006 1238.77 20.0017 1238.77 19.9975C1238.77 19.9933 1238.77 19.9891 1238.78 19.9848C1238.78 19.9806 1238.78 19.9764 1238.78 19.9722C1238.79 19.968 1238.79 19.9637 1238.79 19.9595C1238.79 19.9553 1238.79 19.9511 1238.8 19.9469C1238.8 19.9427 1238.8 19.9384 1238.8 19.9342C1238.8 19.93 1238.81 19.9258 1238.81 19.9216C1238.81 19.9174 1238.81 19.9132 1238.81 19.909C1238.82 19.9048 1238.82 19.9006 1238.82 19.8964C1238.82 19.8921 1238.83 19.8879 1238.83 19.8837C1238.83 19.8795 1238.83 19.8753 1238.83 19.8711C1238.84 19.8669 1238.84 19.8627 1238.84 19.8585C1238.84 19.8543 1238.84 19.8501 1238.85 19.846C1238.85 19.8418 1238.85 19.8376 1238.85 19.8334C1238.85 19.8292 1238.86 19.825 1238.86 19.8208C1238.86 19.8166 1238.86 19.8124 1238.86 19.8082C1238.87 19.8041 1238.87 19.7999 1238.87 19.7957C1238.87 19.7915 1238.88 19.7873 1238.88 19.7831C1238.88 19.7789 1238.88 19.7748 1238.88 19.7706C1238.89 19.7664 1238.89 19.7622 1238.89 19.7581C1238.89 19.7539 1238.89 19.7497 1238.9 19.7455C1238.9 19.7414 1238.9 19.7372 1238.9 19.733C1238.9 19.7288 1238.91 19.7247 1238.91 19.7205C1238.91 19.7163 1238.91 19.7122 1238.92 19.708C1238.92 19.7038 1238.92 19.6997 1238.92 19.6955C1238.92 19.6913 1238.93 19.6872 1238.93 19.683C1238.93 19.6789 1238.93 19.6747 1238.93 19.6705C1238.94 19.6664 1238.94 19.6622 1238.94 19.6581C1238.94 19.6539 1238.94 19.6498 1238.95 19.6456C1238.95 19.6415 1238.95 19.6373 1238.95 19.6331C1238.95 19.629 1238.96 19.6248 1238.96 19.6207C1238.96 19.6166 1238.96 19.6124 1238.96 19.6083C1238.97 19.6041 1238.97 19.6 1238.97 19.5958C1238.97 19.5917 1238.98 19.5875 1238.98 19.5834C1238.98 19.5793 1238.98 19.5751 1238.98 19.571C1238.99 19.5668 1238.99 19.5627 1238.99 19.5586C1238.99 19.5544 1238.99 19.5503 1239 19.5462C1239 19.542 1239 19.5379 1239 19.5338C1239 19.5296 1239.01 19.5255 1239.01 19.5214C1239.01 19.5173 1239.01 19.5131 1239.01 19.509C1239.02 19.5049 1239.02 19.5008 1239.02 19.4966C1239.02 19.4925 1239.02 19.4884 1239.03 19.4843C1239.03 19.4802 1239.03 19.476 1239.03 19.4719C1239.04 19.4678 1239.04 19.4637 1239.04 19.4596C1239.04 19.4555 1239.04 19.4513 1239.05 19.4472C1239.05 19.4431 1239.05 19.439 1239.05 19.4349C1239.05 19.4308 1239.06 19.4267 1239.06 19.4226C1239.06 19.4185 1239.06 19.4144 1239.06 19.4103C1239.07 19.4061 1239.07 19.402 1239.07 19.3979C1239.07 19.3938 1239.07 19.3897 1239.08 19.3856C1239.08 19.3815 1239.08 19.3774 1239.08 19.3733C1239.08 19.3693 1239.09 19.3652 1239.09 19.3611C1239.09 19.357 1239.09 19.3529 1239.09 19.3488C1239.1 19.3447 1239.1 19.3406 1239.1 19.3365C1239.1 19.3324 1239.1 19.3283 1239.11 19.3242C1239.11 19.3202 1239.11 19.3161 1239.11 19.312C1239.12 19.3079 1239.12 19.3038 1239.12 19.2997C1239.12 19.2957 1239.12 19.2916 1239.13 19.2875C1239.13 19.2834 1239.13 19.2793 1239.13 19.2753C1239.13 19.2712 1239.14 19.2671 1239.14 19.263C1239.14 19.259 1239.14 19.2549 1239.14 19.2508C1239.15 19.2468 1239.15 19.2427 1239.15 19.2386C1239.15 19.2345 1239.15 19.2305 1239.16 19.2264C1239.16 19.2223 1239.16 19.2183 1239.16 19.2142C1239.16 19.2102 1239.17 19.2061 1239.17 19.202C1239.17 19.198 1239.17 19.1939 1239.17 19.1899C1239.18 19.1858 1239.18 19.1817 1239.18 19.1777C1239.18 19.1736 1239.18 19.1696 1239.19 19.1655C1239.19 19.1615 1239.19 19.1574 1239.19 19.1534C1239.19 19.1493 1239.2 19.1453 1239.2 19.1412C1239.2 19.1372 1239.2 19.1331 1239.2 19.1291C1239.21 19.125 1239.21 19.121 1239.21 19.1169C1239.21 19.1129 1239.21 19.1089 1239.22 19.1048C1239.22 19.1008 1239.22 19.0967 1239.22 19.0927C1239.22 19.0887 1239.23 19.0846 1239.23 19.0806C1239.23 19.0766 1239.23 19.0725 1239.23 19.0685C1239.24 19.0645 1239.24 19.0604 1239.24 19.0564C1239.24 19.0524 1239.24 19.0483 1239.25 19.0443C1239.25 19.0403 1239.25 19.0363 1239.25 19.0322C1239.26 19.0282 1239.26 19.0242 1239.26 19.0202C1239.26 19.0161 1239.26 19.0121 1239.27 19.0081C1239.27 19.0041 1239.27 19.0001 1239.27 18.996C1239.27 18.992 1239.28 18.988 1239.28 18.984C1239.28 18.98 1239.28 18.976 1239.28 18.972C1239.29 18.9679 1239.29 18.9639 1239.29 18.9599C1239.29 18.9559 1239.29 18.9519 1239.3 18.9479C1239.3 18.9439 1239.3 18.9399 1239.3 18.9359C1239.3 18.9319 1239.31 18.9279 1239.31 18.9239C1239.31 18.9199 1239.31 18.9159 1239.31 18.9119C1239.32 18.9079 1239.32 18.9039 1239.32 18.8999C1239.32 18.8959 1239.32 18.8919 1239.33 18.8879C1239.33 18.8839 1239.33 18.8799 1239.33 18.8759C1239.33 18.8719 1239.34 18.8679 1239.34 18.8639C1239.34 18.8599 1239.34 18.856 1239.34 18.852C1239.35 18.848 1239.35 18.844 1239.35 18.84C1239.35 18.836 1239.35 18.8321 1239.36 18.8281C1239.36 18.8241 1239.36 18.8201 1239.36 18.8161C1239.36 18.8121 1239.36 18.8082 1239.37 18.8042C1239.37 18.8002 1239.37 18.7962 1239.37 18.7923C1239.38 18.7883 1239.38 18.7843 1239.38 18.7804C1239.38 18.7764 1239.38 18.7724 1239.38 18.7684C1239.39 18.7645 1239.39 18.7605 1239.39 18.7565C1239.39 18.7526 1239.39 18.7486 1239.4 18.7447C1239.4 18.7407 1239.4 18.7367 1239.4 18.7328C1239.4 18.7288 1239.41 18.7248 1239.41 18.7209C1239.41 18.7169 1239.41 18.713 1239.41 18.709C1239.42 18.7051 1239.42 18.7011 1239.42 18.6972C1239.42 18.6932 1239.42 18.6892 1239.43 18.6853C1239.43 18.6813 1239.43 18.6774 1239.43 18.6735C1239.43 18.6695 1239.44 18.6656 1239.44 18.6616L1234.07 15.9783C1234.07 15.9823 1234.07 15.9862 1234.07 15.9902C1234.06 15.9941 1234.06 15.9981 1234.06 16.002C1234.06 16.006 1234.06 16.0099 1234.05 16.0139C1234.05 16.0178 1234.05 16.0218 1234.05 16.0257C1234.05 16.0297 1234.04 16.0336 1234.04 16.0376C1234.04 16.0416 1234.04 16.0455 1234.04 16.0495C1234.03 16.0534 1234.03 16.0574 1234.03 16.0614C1234.03 16.0653 1234.03 16.0693 1234.02 16.0733C1234.02 16.0772 1234.02 16.0812 1234.02 16.0852C1234.02 16.0891 1234.01 16.0931 1234.01 16.0971C1234.01 16.101 1234.01 16.105 1234.01 16.109C1234 16.113 1234 16.1169 1234 16.1209C1234 16.1249 1234 16.1289 1233.99 16.1328C1233.99 16.1368 1233.99 16.1408 1233.99 16.1448C1233.99 16.1488 1233.98 16.1528 1233.98 16.1567C1233.98 16.1607 1233.98 16.1647 1233.98 16.1687C1233.97 16.1727 1233.97 16.1767 1233.97 16.1807C1233.97 16.1846 1233.97 16.1886 1233.96 16.1926C1233.96 16.1966 1233.96 16.2006 1233.96 16.2046C1233.96 16.2086 1233.95 16.2126 1233.95 16.2166C1233.95 16.2206 1233.95 16.2246 1233.95 16.2286C1233.94 16.2326 1233.94 16.2366 1233.94 16.2406C1233.94 16.2446 1233.94 16.2486 1233.93 16.2526C1233.93 16.2566 1233.93 16.2606 1233.93 16.2646C1233.93 16.2686 1233.92 16.2726 1233.92 16.2766C1233.92 16.2806 1233.92 16.2847 1233.92 16.2887C1233.91 16.2927 1233.91 16.2967 1233.91 16.3007C1233.91 16.3047 1233.91 16.3087 1233.9 16.3128C1233.9 16.3168 1233.9 16.3208 1233.9 16.3248C1233.9 16.3288 1233.89 16.3329 1233.89 16.3369C1233.89 16.3409 1233.89 16.3449 1233.89 16.3489C1233.88 16.353 1233.88 16.357 1233.88 16.361C1233.88 16.3651 1233.88 16.3691 1233.87 16.3731C1233.87 16.3771 1233.87 16.3812 1233.87 16.3852C1233.87 16.3892 1233.86 16.3933 1233.86 16.3973C1233.86 16.4013 1233.86 16.4054 1233.86 16.4094C1233.85 16.4135 1233.85 16.4175 1233.85 16.4215C1233.85 16.4256 1233.85 16.4296 1233.84 16.4337C1233.84 16.4377 1233.84 16.4417 1233.84 16.4458C1233.84 16.4498 1233.83 16.4539 1233.83 16.4579C1233.83 16.462 1233.83 16.466 1233.83 16.4701C1233.82 16.4741 1233.82 16.4782 1233.82 16.4822C1233.82 16.4863 1233.82 16.4903 1233.81 16.4944C1233.81 16.4985 1233.81 16.5025 1233.81 16.5066C1233.81 16.5106 1233.8 16.5147 1233.8 16.5187C1233.8 16.5228 1233.8 16.5269 1233.8 16.5309C1233.79 16.535 1233.79 16.5391 1233.79 16.5431C1233.79 16.5472 1233.79 16.5513 1233.78 16.5553C1233.78 16.5594 1233.78 16.5635 1233.78 16.5675C1233.78 16.5716 1233.77 16.5757 1233.77 16.5798C1233.77 16.5838 1233.77 16.5879 1233.76 16.592C1233.76 16.5961 1233.76 16.6001 1233.76 16.6042C1233.76 16.6083 1233.75 16.6124 1233.75 16.6165C1233.75 16.6205 1233.75 16.6246 1233.75 16.6287C1233.74 16.6328 1233.74 16.6369 1233.74 16.641C1233.74 16.6451 1233.74 16.6491 1233.73 16.6532C1233.73 16.6573 1233.73 16.6614 1233.73 16.6655C1233.73 16.6696 1233.72 16.6737 1233.72 16.6778C1233.72 16.6819 1233.72 16.686 1233.72 16.6901C1233.71 16.6942 1233.71 16.6983 1233.71 16.7024C1233.71 16.7065 1233.71 16.7106 1233.7 16.7147C1233.7 16.7188 1233.7 16.7229 1233.7 16.727C1233.7 16.7311 1233.69 16.7352 1233.69 16.7393C1233.69 16.7434 1233.69 16.7475 1233.69 16.7516C1233.68 16.7557 1233.68 16.7598 1233.68 16.7639C1233.68 16.7681 1233.67 16.7722 1233.67 16.7763C1233.67 16.7804 1233.67 16.7845 1233.67 16.7886C1233.66 16.7928 1233.66 16.7969 1233.66 16.801C1233.66 16.8051 1233.66 16.8092 1233.65 16.8134C1233.65 16.8175 1233.65 16.8216 1233.65 16.8257C1233.65 16.8299 1233.64 16.834 1233.64 16.8381C1233.64 16.8422 1233.64 16.8464 1233.64 16.8505C1233.63 16.8546 1233.63 16.8588 1233.63 16.8629C1233.63 16.867 1233.63 16.8712 1233.62 16.8753C1233.62 16.8794 1233.62 16.8836 1233.62 16.8877C1233.61 16.8918 1233.61 16.896 1233.61 16.9001C1233.61 16.9043 1233.61 16.9084 1233.6 16.9125C1233.6 16.9167 1233.6 16.9208 1233.6 16.925C1233.6 16.9291 1233.59 16.9333 1233.59 16.9374C1233.59 16.9416 1233.59 16.9457 1233.59 16.9499C1233.58 16.954 1233.58 16.9582 1233.58 16.9623C1233.58 16.9665 1233.58 16.9706 1233.57 16.9748C1233.57 16.9789 1233.57 16.9831 1233.57 16.9873C1233.57 16.9914 1233.56 16.9956 1233.56 16.9997C1233.56 17.0039 1233.56 17.0081 1233.55 17.0122C1233.55 17.0164 1233.55 17.0206 1233.55 17.0247C1233.55 17.0289 1233.54 17.0331 1233.54 17.0372C1233.54 17.0414 1233.54 17.0456 1233.54 17.0497C1233.53 17.0539 1233.53 17.0581 1233.53 17.0623C1233.53 17.0664 1233.53 17.0706 1233.52 17.0748C1233.52 17.079 1233.52 17.0831 1233.52 17.0873C1233.52 17.0915 1233.51 17.0957 1233.51 17.0998C1233.51 17.104 1233.51 17.1082 1233.5 17.1124C1233.5 17.1166 1233.5 17.1208 1233.5 17.125C1233.5 17.1291 1233.49 17.1333 1233.49 17.1375C1233.49 17.1417 1233.49 17.1459 1233.49 17.1501C1233.48 17.1543 1233.48 17.1585 1233.48 17.1627C1233.48 17.1669 1233.48 17.1711 1233.47 17.1753C1233.47 17.1795 1233.47 17.1837 1233.47 17.1879C1233.46 17.1921 1233.46 17.1963 1233.46 17.2005C1233.46 17.2047 1233.46 17.2089 1233.45 17.2131C1233.45 17.2173 1233.45 17.2215 1233.45 17.2257C1233.45 17.2299 1233.44 17.2341 1233.44 17.2383C1233.44 17.2425 1233.44 17.2467 1233.44 17.2509C1233.43 17.2552 1233.43 17.2594 1233.43 17.2636C1233.43 17.2678 1233.42 17.272 1233.42 17.2762C1233.42 17.2805 1233.42 17.2847 1233.42 17.2889C1233.41 17.2931 1233.41 17.2973 1233.41 17.3016C1233.41 17.3058 1233.41 17.31 1233.4 17.3142C1233.4 17.3185 1233.4 17.3227 1233.4 17.3269C1233.4 17.3311 1233.39 17.3354 1233.39 17.3396C1233.39 17.3438 1233.39 17.3481 1233.38 17.3523C1233.38 17.3565 1233.38 17.3608 1233.38 17.365C1233.38 17.3692 1233.37 17.3735 1233.37 17.3777C1233.37 17.3819 1233.37 17.3862 1233.37 17.3904C1233.36 17.3947 1233.36 17.3989 1233.36 17.4031C1233.36 17.4074 1233.36 17.4116 1233.35 17.4159C1233.35 17.4201 1233.35 17.4244 1233.35 17.4286C1233.34 17.4329 1233.34 17.4371 1233.34 17.4414C1233.34 17.4456 1233.34 17.4499 1233.33 17.4541C1233.33 17.4584 1233.33 17.4626 1233.33 17.4669C1233.33 17.4711 1233.32 17.4754 1233.32 17.4797C1233.32 17.4839 1233.32 17.4882 1233.31 17.4924C1233.31 17.4967 1233.31 17.501 1233.31 17.5052C1233.31 17.5095 1233.3 17.5138 1233.3 17.518C1233.3 17.5223 1233.3 17.5266 1233.3 17.5308C1233.29 17.5351 1233.29 17.5394 1233.29 17.5436C1233.29 17.5479 1233.28 17.5522 1233.28 17.5565C1233.28 17.5607 1233.28 17.565 1233.28 17.5693C1233.27 17.5736 1233.27 17.5778 1233.27 17.5821C1233.27 17.5864 1233.27 17.5907 1233.26 17.595C1233.26 17.5992 1233.26 17.6035 1233.26 17.6078C1233.25 17.6121 1233.25 17.6164 1233.25 17.6207C1233.25 17.625 1233.25 17.6292 1233.24 17.6335C1233.24 17.6378 1233.24 17.6421 1233.24 17.6464C1233.24 17.6507 1233.23 17.655 1233.23 17.6593C1233.23 17.6636 1233.23 17.6679 1233.22 17.6722C1233.22 17.6765 1233.22 17.6808 1233.22 17.6851C1233.22 17.6894 1233.21 17.6937 1233.21 17.698C1233.21 17.7023 1233.21 17.7066 1233.21 17.7109C1233.2 17.7152 1233.2 17.7195 1233.2 17.7238C1233.2 17.7281 1233.19 17.7324 1233.19 17.7367C1233.19 17.741 1233.19 17.7453 1233.19 17.7497C1233.18 17.754 1233.18 17.7583 1233.18 17.7626C1233.18 17.7669 1233.18 17.7712 1233.17 17.7756C1233.17 17.7799 1233.17 17.7842 1233.17 17.7885C1233.16 17.7928 1233.16 17.7972 1233.16 17.8015C1233.16 17.8058 1233.16 17.8101 1233.15 17.8144C1233.15 17.8188 1233.15 17.8231 1233.15 17.8274C1233.15 17.8318 1233.14 17.8361 1233.14 17.8404C1233.14 17.8447 1233.14 17.8491 1233.13 17.8534C1233.13 17.8577 1233.13 17.8621 1233.13 17.8664C1233.13 17.8708 1233.12 17.8751 1233.12 17.8794C1233.12 17.8838 1233.12 17.8881 1233.11 17.8924C1233.11 17.8968 1233.11 17.9011 1233.11 17.9055C1233.11 17.9098 1233.1 17.9142 1233.1 17.9185C1233.1 17.9229 1233.1 17.9272 1233.1 17.9315C1233.09 17.9359 1233.09 17.9402 1233.09 17.9446C1233.09 17.9489 1233.08 17.9533 1233.08 17.9577C1233.08 17.962 1233.08 17.9664 1233.08 17.9707C1233.07 17.9751 1233.07 17.9794 1233.07 17.9838C1233.07 17.9882 1233.06 17.9925 1233.06 17.9969C1233.06 18.0012 1233.06 18.0056 1233.06 18.01C1233.05 18.0143 1233.05 18.0187 1233.05 18.0231C1233.05 18.0274 1233.05 18.0318 1233.04 18.0362C1233.04 18.0405 1233.04 18.0449 1233.04 18.0493C1233.03 18.0536 1233.03 18.058 1233.03 18.0624C1233.03 18.0668 1233.03 18.0711 1233.02 18.0755C1233.02 18.0799 1233.02 18.0843 1233.02 18.0887C1233.01 18.093 1233.01 18.0974 1233.01 18.1018C1233.01 18.1062 1233.01 18.1106 1233 18.1149C1233 18.1193 1233 18.1237 1233 18.1281C1232.99 18.1325 1232.99 18.1369 1232.99 18.1413C1232.99 18.1457 1232.99 18.15 1232.98 18.1544C1232.98 18.1588 1232.98 18.1632 1232.98 18.1676C1232.97 18.172 1232.97 18.1764 1232.97 18.1808C1232.97 18.1852 1232.97 18.1896 1232.96 18.194C1232.96 18.1984 1232.96 18.2028 1232.96 18.2072C1232.96 18.2116 1232.95 18.216 1232.95 18.2204C1232.95 18.2248 1232.95 18.2292 1232.94 18.2336C1232.94 18.238 1232.94 18.2425 1232.94 18.2469C1232.94 18.2513 1232.93 18.2557 1232.93 18.2601C1232.93 18.2645 1232.93 18.2689 1232.92 18.2733C1232.92 18.2778 1232.92 18.2822 1232.92 18.2866C1232.92 18.291 1232.91 18.2954 1232.91 18.2999C1232.91 18.3043 1232.91 18.3087 1232.9 18.3131C1232.9 18.3175 1232.9 18.322 1232.9 18.3264C1232.9 18.3308 1232.89 18.3352 1232.89 18.3397C1232.89 18.3441 1232.89 18.3485 1232.88 18.353C1232.88 18.3574 1232.88 18.3618 1232.88 18.3663C1232.88 18.3707 1232.87 18.3751 1232.87 18.3796C1232.87 18.384 1232.87 18.3884 1232.86 18.3929C1232.86 18.3973 1232.86 18.4017 1232.86 18.4062C1232.86 18.4106 1232.85 18.4151 1232.85 18.4195C1232.85 18.424 1232.85 18.4284 1232.84 18.4328C1232.84 18.4373 1232.84 18.4417 1232.84 18.4462C1232.84 18.4506 1232.83 18.4551 1232.83 18.4595C1232.83 18.464 1232.83 18.4684 1232.82 18.4729C1232.82 18.4774 1232.82 18.4818 1232.82 18.4863C1232.82 18.4907 1232.81 18.4952 1232.81 18.4996C1232.81 18.5041 1232.81 18.5086 1232.8 18.513C1232.8 18.5175 1232.8 18.5219 1232.8 18.5264C1232.8 18.5309 1232.79 18.5353 1232.79 18.5398C1232.79 18.5443 1232.79 18.5487 1232.78 18.5532C1232.78 18.5577 1232.78 18.5621 1232.78 18.5666C1232.78 18.5711 1232.77 18.5756 1232.77 18.58C1232.77 18.5845 1232.77 18.589 1232.76 18.5935C1232.76 18.5979 1232.76 18.6024 1232.76 18.6069C1232.76 18.6114 1232.75 18.6159 1232.75 18.6203C1232.75 18.6248 1232.75 18.6293 1232.74 18.6338C1232.74 18.6383 1232.74 18.6428 1232.74 18.6473C1232.73 18.6517 1232.73 18.6562 1232.73 18.6607C1232.73 18.6652 1232.73 18.6697 1232.72 18.6742C1232.72 18.6787 1232.72 18.6832 1232.72 18.6877C1232.71 18.6922 1232.71 18.6967 1232.71 18.7012C1232.71 18.7057 1232.71 18.7102 1232.7 18.7147C1232.7 18.7192 1232.7 18.7237 1232.7 18.7282C1232.69 18.7327 1232.69 18.7372 1232.69 18.7417C1232.69 18.7462 1232.69 18.7507 1232.68 18.7552C1232.68 18.7597 1232.68 18.7642 1232.68 18.7687C1232.67 18.7732 1232.67 18.7777 1232.67 18.7823C1232.67 18.7868 1232.67 18.7913 1232.66 18.7958C1232.66 18.8003 1232.66 18.8048 1232.66 18.8093C1232.65 18.8139 1232.65 18.8184 1232.65 18.8229C1232.65 18.8274 1232.64 18.832 1232.64 18.8365C1232.64 18.841 1232.64 18.8455 1232.64 18.85C1232.63 18.8546 1232.63 18.8591 1232.63 18.8636C1232.63 18.8682 1232.62 18.8727 1232.62 18.8772C1232.62 18.8817 1232.62 18.8863 1232.62 18.8908C1232.61 18.8953 1232.61 18.8999 1232.61 18.9044C1232.61 18.909 1232.6 18.9135 1232.6 18.918C1232.6 18.9226 1232.6 18.9271 1232.6 18.9317C1232.59 18.9362 1232.59 18.9407 1232.59 18.9453C1232.59 18.9498 1232.58 18.9544 1232.58 18.9589C1232.58 18.9635 1232.58 18.968 1232.57 18.9726C1232.57 18.9771 1232.57 18.9817 1232.57 18.9862C1232.57 18.9908 1232.56 18.9953 1232.56 18.9999C1232.56 19.0044 1232.56 19.009 1232.55 19.0135C1232.55 19.0181 1232.55 19.0226 1232.55 19.0272C1232.55 19.0318 1232.54 19.0363 1232.54 19.0409C1232.54 19.0454 1232.54 19.05 1232.53 19.0546C1232.53 19.0591 1232.53 19.0637 1232.53 19.0683C1232.52 19.0728 1232.52 19.0774 1232.52 19.082C1232.52 19.0865 1232.52 19.0911 1232.51 19.0957C1232.51 19.1003 1232.51 19.1048 1232.51 19.1094C1232.5 19.114 1232.5 19.1186 1232.5 19.1231C1232.5 19.1277 1232.49 19.1323 1232.49 19.1369C1232.49 19.1415 1232.49 19.146 1232.49 19.1506C1232.48 19.1552 1232.48 19.1598 1232.48 19.1644C1232.48 19.169 1232.47 19.1735 1232.47 19.1781C1232.47 19.1827 1232.47 19.1873 1232.46 19.1919C1232.46 19.1965 1232.46 19.2011 1232.46 19.2057C1232.46 19.2103 1232.45 19.2149 1232.45 19.2194C1232.45 19.224 1232.45 19.2286 1232.44 19.2332C1232.44 19.2378 1232.44 19.2424 1232.44 19.247C1232.44 19.2516 1232.43 19.2562 1232.43 19.2608C1232.43 19.2654 1232.43 19.27 1232.42 19.2747C1232.42 19.2793 1232.42 19.2839 1232.42 19.2885C1232.41 19.2931 1232.41 19.2977 1232.41 19.3023C1232.41 19.3069 1232.41 19.3115 1232.4 19.3161C1232.4 19.3207 1232.4 19.3254 1232.4 19.33C1232.39 19.3346 1232.39 19.3392 1232.39 19.3438C1232.39 19.3484 1232.38 19.3531 1232.38 19.3577C1232.38 19.3623 1232.38 19.3669 1232.38 19.3716C1232.37 19.3762 1232.37 19.3808 1232.37 19.3854C1232.37 19.3901 1232.36 19.3947 1232.36 19.3993C1232.36 19.4039 1232.36 19.4086 1232.35 19.4132C1232.35 19.4178 1232.35 19.4225 1232.35 19.4271C1232.35 19.4317 1232.34 19.4364 1232.34 19.441C1232.34 19.4456 1232.34 19.4503 1232.33 19.4549C1232.33 19.4596 1232.33 19.4642 1232.33 19.4688C1232.32 19.4735 1232.32 19.4781 1232.32 19.4828C1232.32 19.4874 1232.31 19.4921 1232.31 19.4967C1232.31 19.5013 1232.31 19.506 1232.31 19.5106C1232.3 19.5153 1232.3 19.5199 1232.3 19.5246C1232.3 19.5292 1232.29 19.5339 1232.29 19.5386C1232.29 19.5432 1232.29 19.5479 1232.28 19.5525C1232.28 19.5572 1232.28 19.5618 1232.28 19.5665C1232.28 19.5712 1232.27 19.5758 1232.27 19.5805C1232.27 19.5851 1232.27 19.5898 1232.26 19.5945C1232.26 19.5991 1232.26 19.6038 1232.26 19.6085C1232.25 19.6131 1232.25 19.6178 1232.25 19.6225C1232.25 19.6271 1232.24 19.6318 1232.24 19.6365C1232.24 19.6412 1232.24 19.6458 1232.24 19.6505C1232.23 19.6552 1232.23 19.6599 1232.23 19.6645C1232.23 19.6692 1232.22 19.6739 1232.22 19.6786C1232.22 19.6832 1232.22 19.6879 1232.21 19.6926C1232.21 19.6973 1232.21 19.702 1232.21 19.7067C1232.21 19.7113 1232.2 19.716 1232.2 19.7207C1232.2 19.7254 1232.2 19.7301 1232.19 19.7348C1232.19 19.7395 1232.19 19.7442 1232.19 19.7489C1232.18 19.7536 1232.18 19.7582 1232.18 19.7629C1232.18 19.7676 1232.17 19.7723 1232.17 19.777C1232.17 19.7817 1232.17 19.7864 1232.17 19.7911C1232.16 19.7958 1232.16 19.8005 1232.16 19.8052C1232.16 19.8099 1232.15 19.8146 1232.15 19.8193C1232.15 19.8241 1232.15 19.8288 1232.14 19.8335C1232.14 19.8382 1232.14 19.8429 1232.14 19.8476C1232.13 19.8523 1232.13 19.857 1232.13 19.8617C1232.13 19.8664 1232.13 19.8712 1232.12 19.8759C1232.12 19.8806 1232.12 19.8853 1232.12 19.89C1232.11 19.8947 1232.11 19.8995 1232.11 19.9042C1232.11 19.9089 1232.1 19.9136 1232.1 19.9184C1232.1 19.9231 1232.1 19.9278 1232.09 19.9325C1232.09 19.9373 1232.09 19.942 1232.09 19.9467C1232.09 19.9514 1232.08 19.9562 1232.08 19.9609C1232.08 19.9656 1232.08 19.9704 1232.07 19.9751C1232.07 19.9798 1232.07 19.9846 1232.07 19.9893C1232.06 19.994 1232.06 19.9988 1232.06 20.0035C1232.06 20.0083 1232.05 20.013 1232.05 20.0177C1232.05 20.0225 1232.05 20.0272 1232.04 20.032C1232.04 20.0367 1232.04 20.0415 1232.04 20.0462C1232.04 20.0509 1232.03 20.0557 1232.03 20.0604C1232.03 20.0652 1232.03 20.0699 1232.02 20.0747C1232.02 20.0794 1232.02 20.0842 1232.02 20.089C1232.01 20.0937 1232.01 20.0985 1232.01 20.1032C1232.01 20.108 1232 20.1127 1232 20.1175C1232 20.1223 1232 20.127 1231.99 20.1318C1231.99 20.1365 1231.99 20.1413 1231.99 20.1461C1231.99 20.1508 1231.98 20.1556 1231.98 20.1604C1231.98 20.1651 1231.98 20.1699 1231.97 20.1747C1231.97 20.1794 1231.97 20.1842 1231.97 20.189C1231.96 20.1938 1231.96 20.1985 1231.96 20.2033C1231.96 20.2081 1231.95 20.2129 1231.95 20.2176C1231.95 20.2224 1231.95 20.2272 1231.94 20.232C1231.94 20.2368 1231.94 20.2415 1231.94 20.2463C1231.94 20.2511 1231.93 20.2559 1231.93 20.2607C1231.93 20.2655 1231.93 20.2702 1231.92 20.275C1231.92 20.2798 1231.92 20.2846 1231.92 20.2894C1231.91 20.2942 1231.91 20.299 1231.91 20.3038C1231.91 20.3086 1231.9 20.3134 1231.9 20.3182C1231.9 20.3229 1231.9 20.3277 1231.89 20.3325C1231.89 20.3373 1231.89 20.3421 1231.89 20.3469C1231.89 20.3517 1231.88 20.3565 1231.88 20.3613C1231.88 20.3662 1231.88 20.371 1231.87 20.3758C1231.87 20.3806 1231.87 20.3854 1231.87 20.3902C1231.86 20.395 1231.86 20.3998 1231.86 20.4046C1231.86 20.4094 1231.85 20.4142 1231.85 20.419C1231.85 20.4239 1231.85 20.4287 1231.84 20.4335C1231.84 20.4383 1231.84 20.4431 1231.84 20.4479C1231.83 20.4528 1231.83 20.4576 1231.83 20.4624C1231.83 20.4672 1231.82 20.472 1231.82 20.4769C1231.82 20.4817 1231.82 20.4865 1231.82 20.4913C1231.81 20.4962 1231.81 20.501 1231.81 20.5058C1231.81 20.5107 1231.8 20.5155 1231.8 20.5203C1231.8 20.5252 1231.8 20.53 1231.79 20.5348C1231.79 20.5397 1231.79 20.5445 1231.79 20.5493C1231.78 20.5542 1231.78 20.559 1231.78 20.5638C1231.78 20.5687 1231.77 20.5735 1231.77 20.5784C1231.77 20.5832 1231.77 20.588 1231.76 20.5929C1231.76 20.5977 1231.76 20.6026 1231.76 20.6074C1231.75 20.6123 1231.75 20.6171 1231.75 20.622C1231.75 20.6268 1231.75 20.6317 1231.74 20.6365C1231.74 20.6414 1231.74 20.6462 1231.74 20.6511C1231.73 20.6559 1231.73 20.6608 1231.73 20.6656C1231.73 20.6705 1231.72 20.6754 1231.72 20.6802C1231.72 20.6851 1231.72 20.6899 1231.71 20.6948C1231.71 20.6997 1231.71 20.7045 1231.71 20.7094C1231.7 20.7143 1231.7 20.7191 1231.7 20.724C1231.7 20.7289 1231.69 20.7337 1231.69 20.7386C1231.69 20.7435 1231.69 20.7483 1231.68 20.7532C1231.68 20.7581 1231.68 20.763 1231.68 20.7678C1231.67 20.7727 1231.67 20.7776 1231.67 20.7825C1231.67 20.7873 1231.66 20.7922 1231.66 20.7971C1231.66 20.802 1231.66 20.8069 1231.66 20.8117C1231.65 20.8166 1231.65 20.8215 1231.65 20.8264C1231.65 20.8313 1231.64 20.8362 1231.64 20.8411C1231.64 20.846 1231.64 20.8508 1231.63 20.8557C1231.63 20.8606 1231.63 20.8655 1231.63 20.8704C1231.62 20.8753 1231.62 20.8802 1231.62 20.8851C1231.62 20.89 1231.61 20.8949 1231.61 20.8998C1231.61 20.9047 1231.61 20.9096 1231.6 20.9145C1231.6 20.9194 1231.6 20.9243 1231.6 20.9292C1231.59 20.9341 1231.59 20.939 1231.59 20.9439C1231.59 20.9488 1231.58 20.9537 1231.58 20.9586C1231.58 20.9635 1231.58 20.9684 1231.57 20.9733C1231.57 20.9783 1231.57 20.9832 1231.57 20.9881C1231.56 20.993 1231.56 20.9979 1231.56 21.0028C1231.56 21.0077 1231.55 21.0127 1231.55 21.0176C1231.55 21.0225 1231.55 21.0274 1231.54 21.0323C1231.54 21.0373 1231.54 21.0422 1231.54 21.0471C1231.53 21.052 1231.53 21.057 1231.53 21.0619C1231.53 21.0668 1231.53 21.0717 1231.52 21.0767C1231.52 21.0816 1231.52 21.0865 1231.52 21.0915C1231.51 21.0964 1231.51 21.1013 1231.51 21.1063C1231.51 21.1112 1231.5 21.1161 1231.5 21.1211C1231.5 21.126 1231.5 21.1309 1231.49 21.1359C1231.49 21.1408 1231.49 21.1458 1231.49 21.1507C1231.48 21.1556 1231.48 21.1606 1231.48 21.1655C1231.48 21.1705 1231.47 21.1754 1231.47 21.1804C1231.47 21.1853 1231.47 21.1903 1231.46 21.1952C1231.46 21.2002 1231.46 21.2051 1231.46 21.2101C1231.45 21.215 1231.45 21.22 1231.45 21.2249C1231.45 21.2299 1231.44 21.2348 1231.44 21.2398C1231.44 21.2448 1231.44 21.2497 1231.43 21.2547C1231.43 21.2596 1231.43 21.2646 1231.43 21.2696C1231.42 21.2745 1231.42 21.2795 1231.42 21.2844C1231.42 21.2894 1231.41 21.2944 1231.41 21.2993C1231.41 21.3043 1231.41 21.3093 1231.4 21.3143C1231.4 21.3192 1231.4 21.3242 1231.4 21.3292C1231.39 21.3341 1231.39 21.3391 1231.39 21.3441C1231.39 21.3491 1231.38 21.354 1231.38 21.359C1231.38 21.364 1231.38 21.369 1231.37 21.374C1231.37 21.3789 1231.37 21.3839 1231.37 21.3889C1231.36 21.3939 1231.36 21.3989 1231.36 21.4039C1231.36 21.4088 1231.35 21.4138 1231.35 21.4188C1231.35 21.4238 1231.35 21.4288 1231.34 21.4338C1231.34 21.4388 1231.34 21.4438 1231.34 21.4488C1231.33 21.4538 1231.33 21.4587 1231.33 21.4637C1231.33 21.4687 1231.32 21.4737 1231.32 21.4787C1231.32 21.4837 1231.32 21.4887 1231.31 21.4937C1231.31 21.4987 1231.31 21.5037 1231.31 21.5087C1231.3 21.5137 1231.3 21.5187 1231.3 21.5238C1231.3 21.5288 1231.29 21.5338 1231.29 21.5388C1231.29 21.5438 1231.29 21.5488 1231.28 21.5538C1231.28 21.5588 1231.28 21.5638 1231.28 21.5688C1231.27 21.5739 1231.27 21.5789 1231.27 21.5839C1231.27 21.5889 1231.26 21.5939 1231.26 21.5989C1231.26 21.604 1231.26 21.609 1231.25 21.614C1231.25 21.619 1231.25 21.624 1231.25 21.6291C1231.24 21.6341 1231.24 21.6391 1231.24 21.6441C1231.24 21.6492 1231.23 21.6542 1231.23 21.6592C1231.23 21.6643 1231.23 21.6693 1231.22 21.6743C1231.22 21.6794 1231.22 21.6844 1231.22 21.6894C1231.21 21.6945 1231.21 21.6995 1231.21 21.7045C1231.21 21.7096 1231.2 21.7146 1231.2 21.7196C1231.2 21.7247 1231.2 21.7297 1231.19 21.7348C1231.19 21.7398 1231.19 21.7449 1231.19 21.7499C1231.18 21.7549 1231.18 21.76 1231.18 21.765C1231.18 21.7701 1231.17 21.7751 1231.17 21.7802C1231.17 21.7852 1231.17 21.7903 1231.16 21.7953C1231.16 21.8004 1231.16 21.8054 1231.16 21.8105C1231.15 21.8155 1231.15 21.8206 1231.15 21.8257C1231.15 21.8307 1231.14 21.8358 1231.14 21.8408C1231.14 21.8459 1231.14 21.851 1231.13 21.856C1231.13 21.8611 1231.13 21.8661 1231.13 21.8712C1231.12 21.8763 1231.12 21.8813 1231.12 21.8864C1231.12 21.8915 1231.11 21.8965 1231.11 21.9016C1231.11 21.9067 1231.1 21.9118 1231.1 21.9168C1231.1 21.9219 1231.1 21.927 1231.09 21.9321C1231.09 21.9371 1231.09 21.9422 1231.09 21.9473C1231.08 21.9524 1231.08 21.9574 1231.08 21.9625C1231.08 21.9676 1231.07 21.9727 1231.07 21.9778C1231.07 21.9829 1231.07 21.9879 1231.06 21.993C1231.06 21.9981 1231.06 22.0032 1231.06 22.0083C1231.05 22.0134 1231.05 22.0185 1231.05 22.0236C1231.05 22.0286 1231.04 22.0337 1231.04 22.0388C1231.04 22.0439 1231.04 22.049 1231.03 22.0541C1231.03 22.0592 1231.03 22.0643 1231.03 22.0694C1231.02 22.0745 1231.02 22.0796 1231.02 22.0847C1231.02 22.0898 1231.01 22.0949 1231.01 22.1C1231.01 22.1051 1231.01 22.1102 1231 22.1153C1231 22.1204 1231 22.1255 1231 22.1307C1230.99 22.1358 1230.99 22.1409 1230.99 22.146C1230.99 22.1511 1230.98 22.1562 1230.98 22.1613C1230.98 22.1664 1230.98 22.1715 1230.97 22.1767C1230.97 22.1818 1230.97 22.1869 1230.96 22.192C1230.96 22.1971 1230.96 22.2023 1230.96 22.2074C1230.95 22.2125 1230.95 22.2176 1230.95 22.2227C1230.95 22.2279 1230.94 22.233 1230.94 22.2381C1230.94 22.2432 1230.94 22.2484 1230.93 22.2535C1230.93 22.2586 1230.93 22.2638 1230.93 22.2689C1230.92 22.274 1230.92 22.2792 1230.92 22.2843C1230.92 22.2894 1230.91 22.2946 1230.91 22.2997C1230.91 22.3048 1230.91 22.31 1230.9 22.3151C1230.9 22.3203 1230.9 22.3254 1230.9 22.3305C1230.89 22.3357 1230.89 22.3408 1230.89 22.346C1230.89 22.3511 1230.88 22.3563 1230.88 22.3614C1230.88 22.3666 1230.88 22.3717 1230.87 22.3769C1230.87 22.382 1230.87 22.3872 1230.86 22.3923C1230.86 22.3975 1230.86 22.4026 1230.86 22.4078C1230.85 22.4129 1230.85 22.4181 1230.85 22.4232C1230.85 22.4284 1230.84 22.4336 1230.84 22.4387C1230.84 22.4439 1230.84 22.449 1230.83 22.4542C1230.83 22.4594 1230.83 22.4645 1230.83 22.4697C1230.82 22.4749 1230.82 22.48 1230.82 22.4852C1230.82 22.4904 1230.81 22.4955 1230.81 22.5007C1230.81 22.5059 1230.81 22.511 1230.8 22.5162C1230.8 22.5214 1230.8 22.5266 1230.8 22.5317C1230.79 22.5369 1230.79 22.5421 1230.79 22.5473C1230.78 22.5525 1230.78 22.5576 1230.78 22.5628C1230.78 22.568 1230.77 22.5732 1230.77 22.5784C1230.77 22.5835 1230.77 22.5887 1230.76 22.5939C1230.76 22.5991 1230.76 22.6043 1230.76 22.6095C1230.75 22.6147 1230.75 22.6199 1230.75 22.625C1230.75 22.6302 1230.74 22.6354 1230.74 22.6406C1230.74 22.6458 1230.74 22.651 1230.73 22.6562C1230.73 22.6614 1230.73 22.6666 1230.72 22.6718C1230.72 22.677 1230.72 22.6822 1230.72 22.6874C1230.71 22.6926 1230.71 22.6978 1230.71 22.703C1230.71 22.7082 1230.7 22.7134 1230.7 22.7186C1230.7 22.7238 1230.7 22.729 1230.69 22.7342C1230.69 22.7395 1230.69 22.7447 1230.69 22.7499C1230.68 22.7551 1230.68 22.7603 1230.68 22.7655C1230.68 22.7707 1230.67 22.7759 1230.67 22.7812C1230.67 22.7864 1230.67 22.7916 1230.66 22.7968C1230.66 22.802 1230.66 22.8073 1230.65 22.8125C1230.65 22.8177 1230.65 22.8229 1230.65 22.8281C1230.64 22.8334 1230.64 22.8386 1230.64 22.8438C1230.64 22.8491 1230.63 22.8543 1230.63 22.8595C1230.63 22.8647 1230.63 22.87 1230.62 22.8752C1230.62 22.8804 1230.62 22.8857 1230.62 22.8909C1230.61 22.8961 1230.61 22.9014 1230.61 22.9066C1230.6 22.9118 1230.6 22.9171 1230.6 22.9223C1230.6 22.9276 1230.59 22.9328 1230.59 22.938C1230.59 22.9433 1230.59 22.9485 1230.58 22.9538C1230.58 22.959 1230.58 22.9643 1230.58 22.9695C1230.57 22.9748 1230.57 22.98 1230.57 22.9853C1230.57 22.9905 1230.56 22.9958 1230.56 23.001C1230.56 23.0063 1230.56 23.0115 1230.55 23.0168C1230.55 23.022 1230.55 23.0273 1230.54 23.0325C1230.54 23.0378 1230.54 23.0431 1230.54 23.0483L1235.9 25.7316ZM1239.51 18.5017L1244.06 7.89674L1238.54 5.53323L1234 16.1382L1239.51 18.5017ZM1240.26 9.53001L1297.83 30.74L1299.91 25.11L1242.34 3.89996L1240.26 9.53001ZM1301.87 27.925V9.74498H1295.87V27.925H1301.87ZM1298.87 12.745H1480.67V6.74498H1298.87V12.745ZM1477.84 10.7343L1503.59 84.4643L1509.26 82.4857L1483.5 8.75565L1477.84 10.7343ZM1172.65 82.97V93.575H1178.65V82.97H1172.65ZM1175.65 96.575H1193.83V90.575H1175.65V96.575ZM1196.27 95.3187L1203.85 84.7137L1198.96 81.2263L1191.39 91.8313L1196.27 95.3187ZM1201.41 79.97H1175.65V85.97H1201.41V79.97ZM1390.31 95.09V155.185H1396.31V95.09H1390.31ZM1396 156.496C1407.54 132.743 1413.63 112.262 1413.98 95.1512L1407.98 95.0288C1407.66 110.912 1401.96 130.493 1390.61 153.874L1396 156.496ZM1410.98 92.09H1393.31V98.09H1410.98V92.09ZM1394.49 274.092C1399.68 271.869 1403.97 268.512 1407.32 264.045L1402.52 260.445C1399.81 264.058 1396.36 266.761 1392.12 268.578L1394.49 274.092ZM1407.32 264.045C1410.79 259.418 1412.46 253.882 1412.46 247.6H1406.46C1406.46 252.765 1405.11 256.992 1402.52 260.445L1407.32 264.045ZM1412.46 247.6C1412.46 235.241 1406.67 221.488 1395.73 206.445L1390.88 209.975C1401.49 224.559 1406.46 237.066 1406.46 247.6H1412.46ZM1390.31 208.21V271.335H1396.31V208.21H1390.31ZM1137.27 248.58H1192.82V242.58H1137.27V248.58ZM1195.82 245.58V232.45H1189.82V245.58H1195.82ZM1192.82 229.45H1137.27V235.45H1192.82V229.45ZM1134.27 232.45V245.58H1140.27V232.45H1134.27ZM1134.27 302.14V315.775H1140.27V302.14H1134.27ZM1137.27 318.775H1192.82V312.775H1137.27V318.775ZM1195.82 315.775V302.14H1189.82V315.775H1195.82ZM1192.82 299.14H1137.27V305.14H1192.82V299.14Z" fill="#2FDD41"/>
</svg>
