<svg width="682" height="79" viewBox="0 0 682 79" fill="none" xmlns="http://www.w3.org/2000/svg">
<g clip-path="url(#clip0_12_298)">
<path d="M676.401 -4.40776e-05H422.512C416.021 -4.40776e-05 406.222 5.35157 400.75 11.85L387.642 27.5225C382.17 34.0209 372.37 39.3725 365.88 39.3725H268.142C261.652 39.3725 251.853 44.7242 246.38 51.2225L233.145 67.0225C227.673 73.5209 228.564 78.8725 235.054 78.8725H479.398C483.598 78.8725 489.197 76.7064 494.288 73.1387L534.757 45.1064C539.848 41.5387 545.575 39.3725 549.647 39.3725H633.768C637.967 39.3725 643.567 37.2064 648.657 33.6387L671.437 17.8387C682.891 9.93867 685.691 -0.254883 676.401 -0.254883V-4.40776e-05Z" fill="#990DCE"/>
<path d="M236.199 39.5H162.769C159.842 53.2613 155.006 66.6403 148.261 79H202.984C209.474 79 219.273 73.6484 224.746 67.15L237.981 51.35C243.453 44.8516 242.562 39.5 236.072 39.5H236.199Z" fill="#990DCE"/>
<path d="M131.971 79H169.768C173.841 79 177.15 75.6871 177.15 71.6097V46.8903C177.15 42.8129 173.841 39.5 169.768 39.5H165.06C158.569 39.5 148.77 44.8516 143.298 51.35L130.063 67.15C124.59 73.6484 125.481 79 131.971 79Z" fill="#990DCE"/>
<path d="M130.698 38.9904H79.5389C79.2844 43.7049 77.1209 48.292 72.0304 51.4775C62.1039 57.4662 54.2136 67.4049 48.4868 78.6178H97.6102C104.101 78.6178 113.9 73.2662 119.372 66.7678L132.607 50.9678C138.08 44.4694 137.189 39.1178 130.698 39.1178V38.9904Z" fill="#990DCE"/>
<path d="M46.9598 78.4904H84.7567C88.8291 78.4904 92.138 75.1775 92.138 71.1V46.3807C92.138 42.3033 88.8291 38.9904 84.7567 38.9904H80.048C73.5576 38.9904 63.7584 44.342 58.2861 50.8404L45.0508 66.6404C39.5785 73.1387 40.4694 78.4904 46.9598 78.4904Z" fill="#990DCE"/>
<path d="M45.1782 38.9904H7.38123C3.30883 38.9904 0 42.3033 0 46.3807V71.1C0 75.1775 3.30883 78.4904 7.38123 78.4904H12.0899C18.5803 78.4904 28.3795 73.1387 33.8518 66.6404L47.0871 50.8404C52.5594 44.342 51.6686 38.9904 45.1782 38.9904Z" fill="#990DCE"/>
</g>
<defs>
<clipPath id="clip0_12_298">
<rect width="682" height="79" fill="white"/>
</clipPath>
</defs>
</svg>
