<svg width="301" height="234" viewBox="0 0 301 234" fill="none" xmlns="http://www.w3.org/2000/svg">
<path opacity="0.8" d="M300.097 174.111C293.274 183.141 287.656 192.271 283.241 201.502C279.027 210.733 275.214 221.268 271.803 233.107C257.556 229.896 242.205 225.281 225.75 219.261C209.295 213.04 194.647 206.017 181.804 198.191V233.709H119.196V198.191C105.952 206.017 91.1027 213.04 74.648 219.261C58.1933 225.482 43.043 230.097 29.197 233.107C25.7857 221.268 21.8727 210.733 17.458 201.502C13.244 192.271 7.72567 183.141 0.903 174.111C21.7723 174.111 41.6383 173.108 60.501 171.101C79.5643 169.094 96.2197 166.486 110.467 163.275H21.07V58.527H119.196V52.206H9.933V11.27H119.196V0.132994H181.804V11.27H291.067V52.206H181.804V58.527H279.93V163.275H190.533C204.78 166.486 221.335 169.094 240.198 171.101C259.261 173.108 279.228 174.111 300.097 174.111ZM119.196 97.958V91.336H82.173V97.958H119.196ZM218.827 97.958V91.336H181.804V97.958H218.827ZM119.196 122.941H82.173V129.563H119.196V122.941ZM181.804 122.941V129.563H218.827V122.941H181.804Z" fill="#990DCE"/>
</svg>
