<svg width="448" height="118" viewBox="0 0 448 118" fill="none" xmlns="http://www.w3.org/2000/svg">
<path d="M149.55 87.65L151.944 89.4585L155.577 84.65H149.55V87.65ZM141.15 101.3L138.444 100.006L138.432 100.03L138.421 100.054L141.15 101.3ZM135.45 117.05L134.79 119.977L137.55 120.598L138.333 117.881L135.45 117.05ZM112.5 110.15L111.439 112.956L111.454 112.962L111.469 112.967L112.5 110.15ZM90.6 99.65L92.1611 97.0882L87.6 94.3088V99.65H90.6ZM90.6 117.35V120.35H93.6V117.35H90.6ZM59.4 117.35H56.4V120.35H59.4V117.35ZM59.4 99.65H62.4V94.3927L57.8738 97.0672L59.4 99.65ZM37.2 110.15L36.1391 107.344L37.2 110.15ZM14.55 117.05L11.6673 117.881L12.4444 120.578L15.1873 119.982L14.55 117.05ZM8.7 101.3L5.97094 102.546L5.98205 102.57L5.9936 102.594L8.7 101.3ZM0.45 87.65V84.65H-5.57669L-1.9436 89.4585L0.45 87.65ZM30.15 86.15L29.8359 83.1665L29.8326 83.1668L30.15 86.15ZM55.05 82.25L55.7095 85.1766L55.05 79.25V82.25ZM10.5 82.25H7.5V85.25H10.5V82.25ZM10.5 30.05V27.05H7.5V30.05H10.5ZM59.4 30.05V33.05H62.4V30.05H59.4ZM59.4 26.9H62.4V23.9H59.4V26.9ZM4.95 26.9H1.95V29.9H4.95V26.9ZM4.95 6.5V3.5H1.95V6.5H4.95ZM59.4 6.5V9.5H62.4V6.5H59.4ZM59.4 0.949997V-2.05H56.4V0.949997H59.4ZM90.6 0.949997H93.6V-2.05H90.6V0.949997ZM90.6 6.5H87.6V9.5H90.6V6.5ZM145.05 6.5H148.05V3.5H145.05V6.5ZM145.05 26.9V29.9H148.05V26.9H145.05ZM90.6 26.9V23.9H87.6V26.9H90.6ZM90.6 30.05H87.6V33.05H90.6V30.05ZM139.5 30.05H142.5V27.05H139.5V30.05ZM139.5 82.25V85.25H142.5V82.25H139.5ZM94.95 82.25V79.25L94.2905 85.1766L94.95 82.25ZM119.7 86.15L119.383 89.1332L119.386 89.1335L119.7 86.15ZM59.4 49.7V52.7H62.4V49.7H59.4ZM59.4 46.4H62.4V43.4H59.4V46.4ZM40.95 46.4V43.4H37.95V46.4H40.95ZM40.95 49.7H37.95V52.7H40.95V49.7ZM109.05 49.7V52.7H112.05V49.7H109.05ZM109.05 46.4H112.05V43.4H109.05V46.4ZM90.6 46.4V43.4H87.6V46.4H90.6ZM90.6 49.7H87.6V52.7H90.6V49.7ZM59.4 62.15H62.4V59.15H59.4V62.15ZM40.95 62.15V59.15H37.95V62.15H40.95ZM40.95 65.45H37.95V68.45H40.95V65.45ZM59.4 65.45V68.45H62.4V65.45H59.4ZM90.6 62.15V59.15H87.6V62.15H90.6ZM90.6 65.45H87.6V68.45H90.6V65.45ZM109.05 65.45V68.45H112.05V65.45H109.05ZM109.05 62.15H112.05V59.15H109.05V62.15ZM147.156 85.8415C143.648 90.4853 140.739 95.2062 138.444 100.006L143.856 102.594C145.961 98.1937 148.652 93.8147 151.944 89.4585L147.156 85.8415ZM138.421 100.054C136.248 104.813 134.3 110.206 132.567 116.219L138.333 117.881C140 112.094 141.852 106.987 143.879 102.546L138.421 100.054ZM136.11 114.123C129.157 112.557 121.633 110.297 113.531 107.333L111.469 112.967C119.767 116.003 127.543 118.343 134.79 119.977L136.11 114.123ZM113.561 107.344C105.506 104.299 98.3783 100.877 92.1611 97.0882L89.0389 102.212C95.6217 106.223 103.094 109.801 111.439 112.956L113.561 107.344ZM87.6 99.65V117.35H93.6V99.65H87.6ZM90.6 114.35H59.4V120.35H90.6V114.35ZM62.4 117.35V99.65H56.4V117.35H62.4ZM57.8738 97.0672C51.4415 100.868 44.2003 104.296 36.1391 107.344L38.2609 112.956C46.5997 109.804 54.1585 106.232 60.9262 102.233L57.8738 97.0672ZM36.1391 107.344C28.0456 110.404 20.6391 112.656 13.9127 114.118L15.1873 119.982C22.2609 118.444 29.9544 116.096 38.2609 112.956L36.1391 107.344ZM17.4327 116.219C15.6958 110.191 13.6906 104.782 11.4064 100.006L5.9936 102.594C8.10943 107.018 10.0042 112.109 11.6673 117.881L17.4327 116.219ZM11.4291 100.054C9.22838 95.2336 6.3607 90.4965 2.8436 85.8415L-1.9436 89.4585C1.3393 93.8035 3.97162 98.1664 5.97094 102.546L11.4291 100.054ZM0.45 90.65C10.9456 90.65 20.9521 90.1454 30.4674 89.1332L29.8326 83.1668C20.5479 84.1546 10.7544 84.65 0.45 84.65V90.65ZM30.4641 89.1335C40.0466 88.1248 48.4668 86.8088 55.7095 85.1766L54.3905 79.3234C47.4332 80.8912 39.2534 82.1752 29.8359 83.1665L30.4641 89.1335ZM55.05 79.25H10.5V85.25H55.05V79.25ZM13.5 82.25V30.05H7.5V82.25H13.5ZM10.5 33.05H59.4V27.05H10.5V33.05ZM62.4 30.05V26.9H56.4V30.05H62.4ZM59.4 23.9H4.95V29.9H59.4V23.9ZM7.95 26.9V6.5H1.95V26.9H7.95ZM4.95 9.5H59.4V3.5H4.95V9.5ZM62.4 6.5V0.949997H56.4V6.5H62.4ZM59.4 3.95H90.6V-2.05H59.4V3.95ZM87.6 0.949997V6.5H93.6V0.949997H87.6ZM90.6 9.5H145.05V3.5H90.6V9.5ZM142.05 6.5V26.9H148.05V6.5H142.05ZM145.05 23.9H90.6V29.9H145.05V23.9ZM87.6 26.9V30.05H93.6V26.9H87.6ZM90.6 33.05H139.5V27.05H90.6V33.05ZM136.5 30.05V82.25H142.5V30.05H136.5ZM139.5 79.25H94.95V85.25H139.5V79.25ZM94.2905 85.1766C101.531 86.8082 109.9 88.1243 119.383 89.1332L120.017 83.1668C110.7 82.1757 102.569 80.8918 95.6095 79.3234L94.2905 85.1766ZM119.386 89.1335C128.999 90.1454 139.054 90.65 149.55 90.65V84.65C139.246 84.65 129.401 84.1546 120.014 83.1665L119.386 89.1335ZM62.4 49.7V46.4H56.4V49.7H62.4ZM59.4 43.4H40.95V49.4H59.4V43.4ZM37.95 46.4V49.7H43.95V46.4H37.95ZM40.95 52.7H59.4V46.7H40.95V52.7ZM112.05 49.7V46.4H106.05V49.7H112.05ZM109.05 43.4H90.6V49.4H109.05V43.4ZM87.6 46.4V49.7H93.6V46.4H87.6ZM90.6 52.7H109.05V46.7H90.6V52.7ZM59.4 59.15H40.95V65.15H59.4V59.15ZM37.95 62.15V65.45H43.95V62.15H37.95ZM40.95 68.45H59.4V62.45H40.95V68.45ZM62.4 65.45V62.15H56.4V65.45H62.4ZM87.6 62.15V65.45H93.6V62.15H87.6ZM90.6 68.45H109.05V62.45H90.6V68.45ZM112.05 65.45V62.15H106.05V65.45H112.05ZM109.05 59.15H90.6V65.15H109.05V59.15ZM243.15 4.69999H240.15V7.69999H243.15V4.69999ZM294.45 4.69999H297.45V1.69999H294.45V4.69999ZM294.45 30.2V33.2H297.45V30.2H294.45ZM155.55 30.2H152.55V33.2H155.55V30.2ZM155.55 4.69999V1.69999H152.55V4.69999H155.55ZM206.85 4.69999V7.69999H209.85V4.69999H206.85ZM206.85 0.949997V-2.05H203.85V0.949997H206.85ZM243.15 0.949997H246.15V-2.05H243.15V0.949997ZM271.8 78.95V75.95H262.753L270.008 81.3556L271.8 78.95ZM286.05 88.55L284.524 91.1328L284.546 91.1458L284.568 91.1584L286.05 88.55ZM300.75 95L302.494 97.4412L307.288 94.0169L301.699 92.154L300.75 95ZM286.2 106.25L288.116 108.559L288.121 108.555L286.2 106.25ZM274.65 116.9L272.924 119.354L275.056 120.853L276.839 118.952L274.65 116.9ZM256.95 103.4L254.984 105.666L255.006 105.685L255.029 105.705L256.95 103.4ZM241.05 87.95L243.247 85.9072L238.05 80.3179V87.95H241.05ZM237.45 110.9L239.524 113.068L239.526 113.066L237.45 110.9ZM225.45 115.4L225.033 112.429L225.026 112.43L225.45 115.4ZM199.8 116.6L196.883 117.3L197.435 119.6H199.8V116.6ZM198.9 112.85L201.817 112.15L201.814 112.136L201.81 112.122L198.9 112.85ZM197.7 107.75L194.755 108.32L194.766 108.376L194.778 108.432L197.7 107.75ZM195.15 99.5L197.877 98.25L196.153 94.4874L193.113 97.2972L195.15 99.5ZM173.25 116.9L171.061 118.952L172.865 120.875L175.004 119.334L173.25 116.9ZM161.55 106.25L159.606 108.535L159.632 108.557L159.658 108.578L161.55 106.25ZM147.15 95L146.201 92.154L140.612 94.0169L145.406 97.4412L147.15 95ZM161.85 88.55L163.332 91.1584L163.354 91.1458L163.376 91.1328L161.85 88.55ZM176.1 78.95L177.892 81.3556L185.147 75.95H176.1V78.95ZM162.45 78.95H159.45V81.95H162.45V78.95ZM162.45 33.8V30.8H159.45V33.8H162.45ZM287.55 33.8H290.55V30.8H287.55V33.8ZM287.55 78.95V81.95H290.55V78.95H287.55ZM251.1 52.7H254.1V49.7H251.1V52.7ZM198.9 52.7V49.7H195.9V52.7H198.9ZM198.9 56.75H195.9V59.75H198.9V56.75ZM251.1 56.75V59.75H254.1V56.75H251.1ZM200.1 94.85L198.048 92.6614L192.514 97.85H200.1V94.85ZM205.95 94.25L207.168 96.9914L207.29 96.9373L207.407 96.8725L205.95 94.25ZM207.3 78.95H210.3V75.95H207.3V78.95ZM192.3 78.95V75.95H181.245L190.784 81.5385L192.3 78.95ZM207.15 87.65L209.337 89.704L211.912 86.9627L208.666 85.0615L207.15 87.65ZM241.05 78.95V75.95H238.05V78.95H241.05ZM241.05 87.5H238.05V92.7425L242.57 90.0865L241.05 87.5ZM255.6 78.95L257.12 81.5365L266.627 75.95H255.6V78.95ZM243.15 7.69999H294.45V1.69999H243.15V7.69999ZM291.45 4.69999V30.2H297.45V4.69999H291.45ZM294.45 27.2H155.55V33.2H294.45V27.2ZM158.55 30.2V4.69999H152.55V30.2H158.55ZM155.55 7.69999H206.85V1.69999H155.55V7.69999ZM209.85 4.69999V0.949997H203.85V4.69999H209.85ZM206.85 3.95H243.15V-2.05H206.85V3.95ZM240.15 0.949997V4.69999H246.15V0.949997H240.15ZM270.008 81.3556C275.173 85.2047 280.013 88.4673 284.524 91.1328L287.576 85.9672C283.287 83.4327 278.627 80.2953 273.592 76.5443L270.008 81.3556ZM284.568 91.1584C289.157 93.7658 294.239 95.9919 299.801 97.846L301.699 92.154C296.461 90.4081 291.743 88.3342 287.532 85.9416L284.568 91.1584ZM299.006 92.5588C294.043 96.1037 289.135 99.8994 284.279 103.945L288.121 108.555C292.865 104.601 297.657 100.896 302.494 97.4412L299.006 92.5588ZM284.284 103.941C279.522 107.893 275.573 111.529 272.461 114.848L276.839 118.952C279.727 115.871 283.478 112.407 288.116 108.559L284.284 103.941ZM276.376 114.446C270.035 109.988 264.201 105.537 258.871 101.095L255.029 105.705C260.499 110.263 266.465 114.812 272.924 119.354L276.376 114.446ZM258.916 101.134C253.705 96.6115 248.482 91.5372 243.247 85.9072L238.853 89.9928C244.218 95.7628 249.595 100.988 254.984 105.666L258.916 101.134ZM238.05 87.95V100.4H244.05V87.95H238.05ZM238.05 100.4C238.05 104.627 236.974 107.201 235.374 108.734L239.526 113.066C242.726 109.999 244.05 105.573 244.05 100.4H238.05ZM235.376 108.732C233.771 110.268 230.55 111.655 225.033 112.429L225.867 118.371C231.75 117.545 236.529 115.932 239.524 113.068L235.376 108.732ZM225.026 112.43C219.646 113.199 211.272 113.6 199.8 113.6V119.6C211.328 119.6 220.054 119.201 225.874 118.37L225.026 112.43ZM202.717 115.9L201.817 112.15L195.983 113.55L196.883 117.3L202.717 115.9ZM201.81 112.122C201.718 111.752 201.326 110.085 200.622 107.068L194.778 108.432C195.475 111.415 195.882 113.148 195.99 113.578L201.81 112.122ZM200.645 107.18C200.008 103.89 199.094 100.905 197.877 98.25L192.423 100.75C193.406 102.895 194.191 105.41 194.755 108.32L200.645 107.18ZM193.113 97.2972C187.939 102.081 180.748 107.801 171.496 114.466L175.004 119.334C184.352 112.599 191.761 106.719 197.187 101.703L193.113 97.2972ZM175.439 114.848C172.317 111.519 168.308 107.875 163.442 103.922L159.658 108.578C164.392 112.425 168.183 115.881 171.061 118.952L175.439 114.848ZM163.494 103.965C158.731 99.9117 153.864 96.1093 148.894 92.5588L145.406 97.4412C150.236 100.891 154.969 104.588 159.606 108.535L163.494 103.965ZM148.099 97.846C153.661 95.9919 158.743 93.7658 163.332 91.1584L160.368 85.9416C156.157 88.3342 151.439 90.4081 146.201 92.154L148.099 97.846ZM163.376 91.1328C167.887 88.4673 172.727 85.2047 177.892 81.3556L174.308 76.5443C169.273 80.2953 164.613 83.4327 160.324 85.9672L163.376 91.1328ZM176.1 75.95H162.45V81.95H176.1V75.95ZM165.45 78.95V33.8H159.45V78.95H165.45ZM162.45 36.8H287.55V30.8H162.45V36.8ZM284.55 33.8V78.95H290.55V33.8H284.55ZM287.55 75.95H271.8V81.95H287.55V75.95ZM251.1 49.7H198.9V55.7H251.1V49.7ZM195.9 52.7V56.75H201.9V52.7H195.9ZM198.9 59.75H251.1V53.75H198.9V59.75ZM254.1 56.75V52.7H248.1V56.75H254.1ZM200.1 97.85C201.655 97.85 203.004 97.7987 204.119 97.6843C205.161 97.5774 206.266 97.3924 207.168 96.9914L204.732 91.5086C204.734 91.5076 204.414 91.6226 203.506 91.7157C202.671 91.8013 201.545 91.85 200.1 91.85V97.85ZM207.407 96.8725C209.769 95.5604 210.3 92.9945 210.3 90.95H204.3C204.3 91.5649 204.214 91.8443 204.186 91.9141C204.176 91.9379 204.189 91.8972 204.248 91.8279C204.31 91.7545 204.395 91.6822 204.493 91.6275L207.407 96.8725ZM210.3 90.95V78.95H204.3V90.95H210.3ZM207.3 75.95H192.3V81.95H207.3V75.95ZM190.784 81.5385L205.634 90.2385L208.666 85.0615L193.816 76.3615L190.784 81.5385ZM204.963 85.596C201.871 88.8875 199.575 91.2298 198.048 92.6614L202.152 97.0386C203.825 95.4702 206.229 93.0125 209.337 89.704L204.963 85.596ZM238.05 78.95V87.5H244.05V78.95H238.05ZM242.57 90.0865L257.12 81.5365L254.08 76.3635L239.53 84.9135L242.57 90.0865ZM255.6 75.95H241.05V81.95H255.6V75.95ZM447.75 25.25L450.562 26.2962L450.939 25.2821L450.582 24.2607L447.75 25.25ZM445.35 31.7L448.161 32.7478L448.162 32.7462L445.35 31.7ZM436.8 53.75L434.046 52.5593L433.409 54.0323L434.281 55.3798L436.8 53.75ZM439.5 102.05L437.357 99.9507L437.356 99.9511L439.5 102.05ZM420 108.95L417.021 109.306L417.33 111.887L419.928 111.949L420 108.95ZM414.15 86.6L416.843 85.2773L411.15 86.6H414.15ZM414.15 115.4V118.4H417.15V115.4H414.15ZM386.1 115.4H383.1V118.4H386.1V115.4ZM386.1 21.5H389.1V11.857L383.629 19.7981L386.1 21.5ZM381.45 28.25L378.979 26.5481L375.74 31.25H381.45V28.25ZM382.65 28.25H385.65V25.25H382.65V28.25ZM382.65 48.35V51.35H385.65V48.35H382.65ZM364.5 48.35V45.35H363.359L362.507 46.1078L364.5 48.35ZM363.15 49.55L365.088 51.8402L365.116 51.8165L365.143 51.7922L363.15 49.55ZM361.2 51.2L359.262 48.9098L353.01 54.2H361.2V51.2ZM382.5 51.2H385.5V48.2H382.5V51.2ZM382.5 116.3V119.3H385.5V116.3H382.5ZM354.6 116.3H351.6V119.3H354.6V116.3ZM354.6 114.8H357.6V111.8H354.6V114.8ZM338.1 114.8V111.8H335.1V114.8H338.1ZM338.1 116.3V119.3H341.1V116.3H338.1ZM309.9 116.3H306.9V119.3H309.9V116.3ZM309.9 82.4H312.9V77.9119L308.753 79.6279L309.9 82.4ZM305.55 84.2L302.561 84.4514L302.905 88.5414L306.697 86.972L305.55 84.2ZM299.4 56.45L298.941 53.4854L295.18 54.068L296.624 57.5887L299.4 56.45ZM317.55 53.15L318.195 56.0799L318.222 56.0738L318.25 56.0672L317.55 53.15ZM331.5 48.35L332.765 51.0702L331.5 45.35V48.35ZM303 48.35H300V51.35H303V48.35ZM303 28.25V25.25H300V28.25H303ZM319.05 28.25V31.25H322.05V28.25H319.05ZM319.05 25.1H322.05V22.1H319.05V25.1ZM305.85 25.1H302.85V28.1H305.85V25.1ZM305.85 4.69999V1.69999H302.85V4.69999H305.85ZM319.05 4.69999V7.69999H322.05V4.69999H319.05ZM319.05 0.649992V-2.35001H316.05V0.649992H319.05ZM349.5 0.649992H352.5V-2.35001H349.5V0.649992ZM349.5 4.69999H346.5V7.69999H349.5V4.69999ZM365.55 4.69999H368.55V1.69999H365.55V4.69999ZM365.55 9.95H362.55L368.233 11.2916L365.55 9.95ZM366.6 7.69999L363.917 6.35835L363.877 6.4372L363.843 6.51823L366.6 7.69999ZM367.65 5.59999L370.333 6.94163L370.373 6.86278L370.407 6.78175L367.65 5.59999ZM369 2.45L370.037 -0.365034L367.365 -1.34967L366.243 1.26824L369 2.45ZM386.1 8.74999L385.063 11.565L389.1 13.0524V8.74999H386.1ZM386.1 3.34999V0.349993H383.1V3.34999H386.1ZM440.1 3.34999L442.932 2.36067L442.23 0.349993H440.1V3.34999ZM349.5 25.1V22.1H346.5V25.1H349.5ZM349.5 28.25H346.5V31.25H349.5V28.25ZM354.9 28.25V31.25H356.444L357.341 29.9937L354.9 28.25ZM357.15 25.1L359.591 26.8437L362.98 22.1H357.15V25.1ZM414.15 28.7V25.7H411.15V28.7H414.15ZM414.15 46.55H411.15L416.849 47.8607L414.15 46.55ZM419.4 28.7L422.399 28.7612L422.462 25.7H419.4V28.7ZM414.15 81.05H411.15V85.5996L415.332 83.8074L414.15 81.05ZM417.6 78.35L415.2 76.55L417.6 78.35ZM414.15 62.3L416.576 60.5355L411.15 53.0744V62.3H414.15ZM338.1 73.4H335.1V76.4H338.1V73.4ZM354.6 73.4V76.4H357.6V73.4H354.6ZM354.6 69.5H357.6V66.5H354.6V69.5ZM338.1 69.5V66.5H335.1V69.5H338.1ZM338.1 90.2V87.2H335.1V90.2H338.1ZM338.1 94.25H335.1V97.25H338.1V94.25ZM354.6 94.25V97.25H357.6V94.25H354.6ZM354.6 90.2H357.6V87.2H354.6V90.2ZM444.938 24.2038L442.538 30.6538L448.162 32.7462L450.562 26.2962L444.938 24.2038ZM442.539 30.6522C438.435 41.6627 435.611 48.9413 434.046 52.5593L439.554 54.9407C441.189 51.1587 444.065 43.7373 448.161 32.7478L442.539 30.6522ZM434.281 55.3798C440.719 65.3287 443.7 73.8554 443.7 81.05H449.7C449.7 72.2446 446.081 62.5713 439.319 52.1202L434.281 55.3798ZM443.7 81.05C443.7 89.6296 441.447 95.7756 437.357 99.9507L441.643 104.149C447.153 98.5244 449.7 90.6704 449.7 81.05H443.7ZM437.356 99.9511C433.371 104.022 427.751 106.136 420.072 105.951L419.928 111.949C428.849 112.164 436.229 109.678 441.644 104.149L437.356 99.9511ZM422.979 108.594C421.855 99.1979 419.843 91.386 416.843 85.2773L411.457 87.9227C414.057 93.214 415.945 100.302 417.021 109.306L422.979 108.594ZM411.15 86.6V115.4H417.15V86.6H411.15ZM414.15 112.4H386.1V118.4H414.15V112.4ZM389.1 115.4V21.5H383.1V115.4H389.1ZM383.629 19.7981L378.979 26.5481L383.921 29.9519L388.571 23.2019L383.629 19.7981ZM381.45 31.25H382.65V25.25H381.45V31.25ZM379.65 28.25V48.35H385.65V28.25H379.65ZM382.65 45.35H364.5V51.35H382.65V45.35ZM362.507 46.1078L361.157 47.3078L365.143 51.7922L366.493 50.5922L362.507 46.1078ZM361.212 47.2598L359.262 48.9098L363.138 53.4902L365.088 51.8402L361.212 47.2598ZM361.2 54.2H382.5V48.2H361.2V54.2ZM379.5 51.2V116.3H385.5V51.2H379.5ZM382.5 113.3H354.6V119.3H382.5V113.3ZM357.6 116.3V114.8H351.6V116.3H357.6ZM354.6 111.8H338.1V117.8H354.6V111.8ZM335.1 114.8V116.3H341.1V114.8H335.1ZM338.1 113.3H309.9V119.3H338.1V113.3ZM312.9 116.3V82.4H306.9V116.3H312.9ZM308.753 79.6279L304.403 81.4279L306.697 86.972L311.047 85.1721L308.753 79.6279ZM308.539 83.9485C307.62 73.0228 305.518 63.4596 302.176 55.3113L296.624 57.5887C299.682 65.0404 301.68 73.9772 302.561 84.4514L308.539 83.9485ZM299.859 59.4146C306.999 58.3085 313.114 57.1976 318.195 56.0799L316.905 50.2201C311.986 51.3024 306.001 52.3915 298.941 53.4854L299.859 59.4146ZM318.25 56.0672C323.428 54.8244 328.269 53.1612 332.765 51.0702L330.235 45.6298C326.131 47.5388 321.672 49.0756 316.85 50.2328L318.25 56.0672ZM331.5 45.35H303V51.35H331.5V45.35ZM306 48.35V28.25H300V48.35H306ZM303 31.25H319.05V25.25H303V31.25ZM322.05 28.25V25.1H316.05V28.25H322.05ZM319.05 22.1H305.85V28.1H319.05V22.1ZM308.85 25.1V4.69999H302.85V25.1H308.85ZM305.85 7.69999H319.05V1.69999H305.85V7.69999ZM322.05 4.69999V0.649992H316.05V4.69999H322.05ZM319.05 3.64999H349.5V-2.35001H319.05V3.64999ZM346.5 0.649992V4.69999H352.5V0.649992H346.5ZM349.5 7.69999H365.55V1.69999H349.5V7.69999ZM362.55 4.69999V9.95H368.55V4.69999H362.55ZM368.233 11.2916C368.655 10.4479 369.031 9.64408 369.357 8.88175L363.843 6.51823C363.569 7.1559 363.245 7.85213 362.867 8.60836L368.233 11.2916ZM369.283 9.04163C369.284 9.04007 369.285 9.03851 369.286 9.03695C369.286 9.03538 369.287 9.03382 369.288 9.03226C369.289 9.0307 369.29 9.02914 369.29 9.02758C369.291 9.02602 369.292 9.02446 369.293 9.0229C369.293 9.02134 369.294 9.01978 369.295 9.01822C369.296 9.01666 369.297 9.01511 369.297 9.01355C369.298 9.01199 369.299 9.01043 369.3 9.00887C369.3 9.00732 369.301 9.00576 369.302 9.00421C369.303 9.00265 369.304 9.00109 369.304 8.99954C369.305 8.99798 369.306 8.99643 369.307 8.99487C369.307 8.99332 369.308 8.99176 369.309 8.99021C369.31 8.98865 369.311 8.9871 369.311 8.98555C369.312 8.98399 369.313 8.98244 369.314 8.98089C369.314 8.97934 369.315 8.97778 369.316 8.97623C369.317 8.97468 369.318 8.97313 369.318 8.97158C369.319 8.97003 369.32 8.96848 369.321 8.96692C369.321 8.96537 369.322 8.96383 369.323 8.96227C369.324 8.96073 369.325 8.95918 369.325 8.95763C369.326 8.95608 369.327 8.95453 369.328 8.95298C369.328 8.95144 369.329 8.94989 369.33 8.94834C369.331 8.94679 369.331 8.94525 369.332 8.9437C369.333 8.94215 369.334 8.94061 369.335 8.93906C369.335 8.93752 369.336 8.93597 369.337 8.93443C369.338 8.93288 369.338 8.93134 369.339 8.92979C369.34 8.92825 369.341 8.9267 369.342 8.92516C369.342 8.92362 369.343 8.92207 369.344 8.92053C369.345 8.91899 369.345 8.91745 369.346 8.9159C369.347 8.91436 369.348 8.91282 369.348 8.91128C369.349 8.90974 369.35 8.9082 369.351 8.90666C369.352 8.90512 369.352 8.90358 369.353 8.90204C369.354 8.9005 369.355 8.89896 369.355 8.89742C369.356 8.89588 369.357 8.89434 369.358 8.8928C369.358 8.89127 369.359 8.88973 369.36 8.88819C369.361 8.88665 369.362 8.88512 369.362 8.88358C369.363 8.88204 369.364 8.88051 369.365 8.87897C369.365 8.87744 369.366 8.8759 369.367 8.87436C369.368 8.87283 369.368 8.8713 369.369 8.86976C369.37 8.86823 369.371 8.86669 369.372 8.86516C369.372 8.86363 369.373 8.86209 369.374 8.86056C369.375 8.85903 369.375 8.8575 369.376 8.85596C369.377 8.85443 369.378 8.8529 369.378 8.85137C369.379 8.84984 369.38 8.84831 369.381 8.84678C369.381 8.84525 369.382 8.84372 369.383 8.84219C369.384 8.84066 369.385 8.83913 369.385 8.8376C369.386 8.83607 369.387 8.83454 369.388 8.83301C369.388 8.83148 369.389 8.82996 369.39 8.82843C369.391 8.8269 369.391 8.82537 369.392 8.82385C369.393 8.82232 369.394 8.8208 369.394 8.81927C369.395 8.81774 369.396 8.81622 369.397 8.81469C369.398 8.81317 369.398 8.81164 369.399 8.81012C369.4 8.80859 369.401 8.80707 369.401 8.80555C369.402 8.80402 369.403 8.8025 369.404 8.80098C369.404 8.79945 369.405 8.79793 369.406 8.79641C369.407 8.79489 369.407 8.79337 369.408 8.79185C369.409 8.79032 369.41 8.7888 369.41 8.78728C369.411 8.78576 369.412 8.78424 369.413 8.78272C369.414 8.7812 369.414 8.77968 369.415 8.77816C369.416 8.77664 369.417 8.77513 369.417 8.77361C369.418 8.77209 369.419 8.77057 369.42 8.76905C369.42 8.76754 369.421 8.76602 369.422 8.7645C369.423 8.76299 369.423 8.76147 369.424 8.75995C369.425 8.75844 369.426 8.75692 369.426 8.75541C369.427 8.75389 369.428 8.75238 369.429 8.75086C369.429 8.74935 369.43 8.74783 369.431 8.74632C369.432 8.74481 369.432 8.74329 369.433 8.74178C369.434 8.74027 369.435 8.73875 369.435 8.73724C369.436 8.73573 369.437 8.73422 369.438 8.73271C369.439 8.7312 369.439 8.72968 369.44 8.72817C369.441 8.72666 369.442 8.72515 369.442 8.72364C369.443 8.72213 369.444 8.72062 369.445 8.71912C369.445 8.71761 369.446 8.7161 369.447 8.71459C369.448 8.71308 369.448 8.71157 369.449 8.71007C369.45 8.70856 369.451 8.70705 369.451 8.70554C369.452 8.70404 369.453 8.70253 369.454 8.70103C369.454 8.69952 369.455 8.69801 369.456 8.69651C369.457 8.695 369.457 8.6935 369.458 8.69199C369.459 8.69049 369.46 8.68898 369.46 8.68748C369.461 8.68598 369.462 8.68447 369.463 8.68297C369.463 8.68147 369.464 8.67997 369.465 8.67846C369.466 8.67696 369.466 8.67546 369.467 8.67396C369.468 8.67246 369.469 8.67096 369.469 8.66945C369.47 8.66795 369.471 8.66645 369.472 8.66495C369.472 8.66345 369.473 8.66195 369.474 8.66045C369.475 8.65895 369.475 8.65746 369.476 8.65596C369.477 8.65446 369.478 8.65296 369.478 8.65146C369.479 8.64997 369.48 8.64847 369.481 8.64697C369.481 8.64548 369.482 8.64398 369.483 8.64248C369.484 8.64099 369.484 8.63949 369.485 8.63799C369.486 8.6365 369.487 8.63501 369.487 8.63351C369.488 8.63202 369.489 8.63052 369.49 8.62903C369.49 8.62753 369.491 8.62604 369.492 8.62455C369.493 8.62305 369.493 8.62156 369.494 8.62007C369.495 8.61858 369.496 8.61708 369.496 8.61559C369.497 8.6141 369.498 8.61261 369.499 8.61112C369.499 8.60963 369.5 8.60814 369.501 8.60665C369.502 8.60516 369.502 8.60367 369.503 8.60218C369.504 8.60069 369.505 8.5992 369.505 8.59771C369.506 8.59623 369.507 8.59474 369.507 8.59325C369.508 8.59176 369.509 8.59027 369.51 8.58879C369.51 8.5873 369.511 8.58581 369.512 8.58433C369.513 8.58284 369.513 8.58136 369.514 8.57987C369.515 8.57838 369.516 8.5769 369.516 8.57541C369.517 8.57393 369.518 8.57245 369.519 8.57096C369.519 8.56948 369.52 8.568 369.521 8.56651C369.522 8.56503 369.522 8.56355 369.523 8.56206C369.524 8.56058 369.525 8.5591 369.525 8.55762C369.526 8.55614 369.527 8.55466 369.528 8.55317C369.528 8.55169 369.529 8.55021 369.53 8.54873C369.53 8.54725 369.531 8.54577 369.532 8.54429C369.533 8.54281 369.533 8.54133 369.534 8.53986C369.535 8.53838 369.536 8.5369 369.536 8.53542C369.537 8.53394 369.538 8.53247 369.539 8.53099C369.539 8.52951 369.54 8.52804 369.541 8.52656C369.542 8.52508 369.542 8.52361 369.543 8.52213C369.544 8.52066 369.545 8.51918 369.545 8.51771C369.546 8.51623 369.547 8.51476 369.547 8.51328C369.548 8.51181 369.549 8.51034 369.55 8.50886C369.55 8.50739 369.551 8.50592 369.552 8.50444C369.553 8.50297 369.553 8.5015 369.554 8.50003C369.555 8.49856 369.556 8.49708 369.556 8.49561C369.557 8.49414 369.558 8.49267 369.559 8.4912C369.559 8.48973 369.56 8.48826 369.561 8.48679C369.561 8.48532 369.562 8.48385 369.563 8.48239C369.564 8.48092 369.564 8.47945 369.565 8.47798C369.566 8.47651 369.567 8.47504 369.567 8.47358C369.568 8.47211 369.569 8.47064 369.57 8.46918C369.57 8.46771 369.571 8.46625 369.572 8.46478C369.572 8.46331 369.573 8.46185 369.574 8.46038C369.575 8.45892 369.575 8.45745 369.576 8.45599C369.577 8.45453 369.578 8.45306 369.578 8.4516C369.579 8.45014 369.58 8.44867 369.581 8.44721C369.581 8.44575 369.582 8.44429 369.583 8.44282C369.583 8.44136 369.584 8.4399 369.585 8.43844C369.586 8.43698 369.586 8.43552 369.587 8.43406C369.588 8.4326 369.589 8.43114 369.589 8.42968C369.59 8.42822 369.591 8.42676 369.591 8.4253C369.592 8.42384 369.593 8.42238 369.594 8.42093C369.594 8.41947 369.595 8.41801 369.596 8.41655C369.597 8.4151 369.597 8.41364 369.598 8.41218C369.599 8.41073 369.599 8.40927 369.6 8.40781C369.601 8.40636 369.602 8.4049 369.602 8.40345C369.603 8.40199 369.604 8.40054 369.605 8.39908C369.605 8.39763 369.606 8.39618 369.607 8.39472C369.607 8.39327 369.608 8.39182 369.609 8.39036C369.61 8.38891 369.61 8.38746 369.611 8.38601C369.612 8.38456 369.613 8.3831 369.613 8.38165C369.614 8.3802 369.615 8.37875 369.615 8.3773C369.616 8.37585 369.617 8.3744 369.618 8.37295C369.618 8.3715 369.619 8.37005 369.62 8.3686C369.621 8.36716 369.621 8.36571 369.622 8.36426C369.623 8.36281 369.623 8.36136 369.624 8.35991C369.625 8.35847 369.626 8.35702 369.626 8.35557C369.627 8.35413 369.628 8.35268 369.628 8.35124C369.629 8.34979 369.63 8.34834 369.631 8.3469C369.631 8.34546 369.632 8.34401 369.633 8.34257C369.634 8.34112 369.634 8.33968 369.635 8.33823C369.636 8.33679 369.636 8.33535 369.637 8.33391C369.638 8.33246 369.639 8.33102 369.639 8.32958C369.64 8.32814 369.641 8.32669 369.641 8.32525C369.642 8.32381 369.643 8.32237 369.644 8.32093C369.644 8.31949 369.645 8.31805 369.646 8.31661C369.647 8.31517 369.647 8.31373 369.648 8.31229C369.649 8.31085 369.649 8.30942 369.65 8.30798C369.651 8.30654 369.652 8.3051 369.652 8.30367C369.653 8.30223 369.654 8.30079 369.654 8.29935C369.655 8.29792 369.656 8.29648 369.657 8.29504C369.657 8.29361 369.658 8.29217 369.659 8.29074C369.659 8.2893 369.66 8.28787 369.661 8.28643C369.662 8.285 369.662 8.28357 369.663 8.28213C369.664 8.2807 369.664 8.27927 369.665 8.27783C369.666 8.2764 369.667 8.27497 369.667 8.27353C369.668 8.2721 369.669 8.27067 369.669 8.26924C369.67 8.26781 369.671 8.26638 369.672 8.26495C369.672 8.26352 369.673 8.26209 369.674 8.26066C369.674 8.25923 369.675 8.2578 369.676 8.25637C369.677 8.25494 369.677 8.25351 369.678 8.25208C369.679 8.25066 369.679 8.24923 369.68 8.2478C369.681 8.24637 369.682 8.24495 369.682 8.24352C369.683 8.24209 369.684 8.24067 369.684 8.23924C369.685 8.23781 369.686 8.23639 369.687 8.23496C369.687 8.23354 369.688 8.23211 369.689 8.23069C369.689 8.22927 369.69 8.22784 369.691 8.22642C369.692 8.22499 369.692 8.22357 369.693 8.22215C369.694 8.22072 369.694 8.2193 369.695 8.21788C369.696 8.21646 369.697 8.21504 369.697 8.21361C369.698 8.21219 369.699 8.21077 369.699 8.20935C369.7 8.20793 369.701 8.20651 369.702 8.20509C369.702 8.20367 369.703 8.20225 369.704 8.20083C369.704 8.19941 369.705 8.19799 369.706 8.19658C369.707 8.19516 369.707 8.19374 369.708 8.19232C369.709 8.1909 369.709 8.18949 369.71 8.18807C369.711 8.18666 369.711 8.18524 369.712 8.18382C369.713 8.18241 369.714 8.18099 369.714 8.17957C369.715 8.17816 369.716 8.17674 369.716 8.17533C369.717 8.17392 369.718 8.1725 369.719 8.17109C369.719 8.16967 369.72 8.16826 369.721 8.16685C369.721 8.16544 369.722 8.16402 369.723 8.16261C369.724 8.1612 369.724 8.15979 369.725 8.15837C369.726 8.15696 369.726 8.15555 369.727 8.15414C369.728 8.15273 369.728 8.15132 369.729 8.14991C369.73 8.1485 369.731 8.14709 369.731 8.14568C369.732 8.14427 369.733 8.14286 369.733 8.14146C369.734 8.14005 369.735 8.13864 369.735 8.13723C369.736 8.13582 369.737 8.13442 369.738 8.13301C369.738 8.1316 369.739 8.1302 369.74 8.12879C369.74 8.12738 369.741 8.12598 369.742 8.12457C369.743 8.12317 369.743 8.12176 369.744 8.12036C369.745 8.11895 369.745 8.11755 369.746 8.11615C369.747 8.11474 369.747 8.11334 369.748 8.11194C369.749 8.11053 369.75 8.10913 369.75 8.10773C369.751 8.10633 369.752 8.10492 369.752 8.10352C369.753 8.10212 369.754 8.10072 369.754 8.09932C369.755 8.09792 369.756 8.09652 369.757 8.09512C369.757 8.09372 369.758 8.09232 369.759 8.09092C369.759 8.08952 369.76 8.08812 369.761 8.08672C369.761 8.08532 369.762 8.08393 369.763 8.08253C369.764 8.08113 369.764 8.07973 369.765 8.07834C369.766 8.07694 369.766 8.07554 369.767 8.07415C369.768 8.07275 369.768 8.07135 369.769 8.06996C369.77 8.06856 369.771 8.06717 369.771 8.06577C369.772 8.06438 369.773 8.06298 369.773 8.06159C369.774 8.0602 369.775 8.0588 369.775 8.05741C369.776 8.05602 369.777 8.05462 369.777 8.05323C369.778 8.05184 369.779 8.05045 369.78 8.04906C369.78 8.04766 369.781 8.04627 369.782 8.04488C369.782 8.04349 369.783 8.0421 369.784 8.04071C369.784 8.03932 369.785 8.03793 369.786 8.03654C369.787 8.03515 369.787 8.03376 369.788 8.03238C369.789 8.03099 369.789 8.0296 369.79 8.02821C369.791 8.02682 369.791 8.02544 369.792 8.02405C369.793 8.02266 369.793 8.02127 369.794 8.01989C369.795 8.0185 369.796 8.01712 369.796 8.01573C369.797 8.01435 369.798 8.01296 369.798 8.01158C369.799 8.01019 369.8 8.00881 369.8 8.00742C369.801 8.00604 369.802 8.00466 369.802 8.00327C369.803 8.00189 369.804 8.00051 369.805 7.99912C369.805 7.99774 369.806 7.99636 369.807 7.99498C369.807 7.9936 369.808 7.99221 369.809 7.99083C369.809 7.98945 369.81 7.98807 369.811 7.98669C369.811 7.98531 369.812 7.98393 369.813 7.98255C369.814 7.98117 369.814 7.97979 369.815 7.97842C369.816 7.97704 369.816 7.97566 369.817 7.97428C369.818 7.9729 369.818 7.97153 369.819 7.97015C369.82 7.96877 369.82 7.96739 369.821 7.96602C369.822 7.96464 369.822 7.96327 369.823 7.96189C369.824 7.96051 369.825 7.95914 369.825 7.95777C369.826 7.95639 369.827 7.95502 369.827 7.95364C369.828 7.95227 369.829 7.95089 369.829 7.94952C369.83 7.94815 369.831 7.94677 369.831 7.9454C369.832 7.94403 369.833 7.94266 369.833 7.94129C369.834 7.93991 369.835 7.93854 369.836 7.93717C369.836 7.9358 369.837 7.93443 369.838 7.93306C369.838 7.93169 369.839 7.93032 369.84 7.92895C369.84 7.92758 369.841 7.92621 369.842 7.92484C369.842 7.92347 369.843 7.92211 369.844 7.92074C369.844 7.91937 369.845 7.918 369.846 7.91664C369.846 7.91527 369.847 7.9139 369.848 7.91253C369.849 7.91117 369.849 7.9098 369.85 7.90844C369.851 7.90707 369.851 7.9057 369.852 7.90434C369.853 7.90298 369.853 7.90161 369.854 7.90025C369.855 7.89888 369.855 7.89752 369.856 7.89616C369.857 7.89479 369.857 7.89343 369.858 7.89207C369.859 7.8907 369.859 7.88934 369.86 7.88798C369.861 7.88662 369.861 7.88526 369.862 7.8839C369.863 7.88253 369.864 7.88117 369.864 7.87981C369.865 7.87845 369.866 7.87709 369.866 7.87573C369.867 7.87437 369.868 7.87301 369.868 7.87166C369.869 7.8703 369.87 7.86894 369.87 7.86758C369.871 7.86622 369.872 7.86486 369.872 7.86351C369.873 7.86215 369.874 7.86079 369.874 7.85944C369.875 7.85808 369.876 7.85672 369.876 7.85537C369.877 7.85401 369.878 7.85266 369.878 7.8513C369.879 7.84995 369.88 7.84859 369.88 7.84724C369.881 7.84588 369.882 7.84453 369.883 7.84318C369.883 7.84182 369.884 7.84047 369.885 7.83912C369.885 7.83776 369.886 7.83641 369.887 7.83506C369.887 7.83371 369.888 7.83236 369.889 7.83101C369.889 7.82965 369.89 7.8283 369.891 7.82695C369.891 7.8256 369.892 7.82425 369.893 7.8229C369.893 7.82155 369.894 7.82021 369.895 7.81886C369.895 7.81751 369.896 7.81616 369.897 7.81481C369.897 7.81346 369.898 7.81211 369.899 7.81077C369.899 7.80942 369.9 7.80807 369.901 7.80673C369.901 7.80538 369.902 7.80403 369.903 7.80269C369.903 7.80134 369.904 7.8 369.905 7.79865C369.905 7.79731 369.906 7.79596 369.907 7.79462C369.907 7.79327 369.908 7.79193 369.909 7.79059C369.909 7.78924 369.91 7.7879 369.911 7.78656C369.911 7.78521 369.912 7.78387 369.913 7.78253C369.914 7.78119 369.914 7.77985 369.915 7.77851C369.916 7.77716 369.916 7.77582 369.917 7.77448C369.918 7.77314 369.918 7.7718 369.919 7.77046C369.92 7.76912 369.92 7.76778 369.921 7.76644C369.922 7.7651 369.922 7.76377 369.923 7.76243C369.924 7.76109 369.924 7.75975 369.925 7.75842C369.926 7.75708 369.926 7.75574 369.927 7.7544C369.928 7.75307 369.928 7.75173 369.929 7.75039C369.93 7.74906 369.93 7.74772 369.931 7.74639C369.932 7.74505 369.932 7.74372 369.933 7.74238C369.934 7.74105 369.934 7.73972 369.935 7.73838C369.936 7.73705 369.936 7.73571 369.937 7.73438C369.938 7.73305 369.938 7.73172 369.939 7.73038C369.94 7.72905 369.94 7.72772 369.941 7.72639C369.942 7.72506 369.942 7.72373 369.943 7.7224C369.944 7.72107 369.944 7.71974 369.945 7.71841C369.946 7.71708 369.946 7.71575 369.947 7.71442C369.948 7.71309 369.948 7.71176 369.949 7.71043C369.95 7.7091 369.95 7.70778 369.951 7.70645C369.952 7.70512 369.952 7.70379 369.953 7.70247C369.954 7.70114 369.954 7.69981 369.955 7.69849C369.956 7.69716 369.956 7.69584 369.957 7.69451C369.958 7.69319 369.958 7.69186 369.959 7.69054C369.96 7.68921 369.96 7.68789 369.961 7.68656C369.961 7.68524 369.962 7.68392 369.963 7.68259C369.963 7.68127 369.964 7.67995 369.965 7.67863C369.965 7.6773 369.966 7.67598 369.967 7.67466C369.967 7.67334 369.968 7.67202 369.969 7.6707C369.969 7.66938 369.97 7.66806 369.971 7.66674C369.971 7.66542 369.972 7.6641 369.973 7.66278C369.973 7.66146 369.974 7.66014 369.975 7.65882C369.975 7.6575 369.976 7.65619 369.977 7.65487C369.977 7.65355 369.978 7.65223 369.979 7.65092C369.979 7.6496 369.98 7.64828 369.981 7.64697C369.981 7.64565 369.982 7.64433 369.983 7.64302C369.983 7.6417 369.984 7.64039 369.985 7.63907C369.985 7.63776 369.986 7.63645 369.987 7.63513C369.987 7.63382 369.988 7.63251 369.988 7.63119C369.989 7.62988 369.99 7.62857 369.99 7.62725C369.991 7.62594 369.992 7.62463 369.992 7.62332C369.993 7.62201 369.994 7.6207 369.994 7.61938C369.995 7.61807 369.996 7.61676 369.996 7.61545C369.997 7.61415 369.998 7.61283 369.998 7.61153C369.999 7.61022 370 7.60891 370 7.6076C370.001 7.60629 370.002 7.60498 370.002 7.60368C370.003 7.60237 370.004 7.60106 370.004 7.59975C370.005 7.59845 370.006 7.59714 370.006 7.59583C370.007 7.59453 370.007 7.59322 370.008 7.59192C370.009 7.59061 370.009 7.58931 370.01 7.588C370.011 7.5867 370.011 7.58539 370.012 7.58409C370.013 7.58278 370.013 7.58148 370.014 7.58018C370.015 7.57887 370.015 7.57757 370.016 7.57627C370.017 7.57497 370.017 7.57367 370.018 7.57236C370.019 7.57106 370.019 7.56976 370.02 7.56846C370.021 7.56716 370.021 7.56586 370.022 7.56456C370.022 7.56326 370.023 7.56196 370.024 7.56066C370.024 7.55936 370.025 7.55806 370.026 7.55676C370.026 7.55547 370.027 7.55417 370.028 7.55287C370.028 7.55157 370.029 7.55027 370.03 7.54898C370.03 7.54768 370.031 7.54638 370.032 7.54509C370.032 7.54379 370.033 7.5425 370.034 7.5412C370.034 7.5399 370.035 7.53861 370.035 7.53731C370.036 7.53602 370.037 7.53473 370.037 7.53343C370.038 7.53214 370.039 7.53084 370.039 7.52955C370.04 7.52826 370.041 7.52696 370.041 7.52567C370.042 7.52438 370.043 7.52309 370.043 7.5218C370.044 7.5205 370.044 7.51921 370.045 7.51792C370.046 7.51663 370.046 7.51534 370.047 7.51405C370.048 7.51276 370.048 7.51147 370.049 7.51018C370.05 7.50889 370.05 7.5076 370.051 7.50632C370.052 7.50503 370.052 7.50374 370.053 7.50245C370.054 7.50116 370.054 7.49987 370.055 7.49859C370.055 7.4973 370.056 7.49601 370.057 7.49473C370.057 7.49344 370.058 7.49216 370.059 7.49087C370.059 7.48958 370.06 7.4883 370.061 7.48701C370.061 7.48573 370.062 7.48445 370.063 7.48316C370.063 7.48188 370.064 7.48059 370.064 7.47931C370.065 7.47803 370.066 7.47674 370.066 7.47546C370.067 7.47418 370.068 7.4729 370.068 7.47161C370.069 7.47033 370.07 7.46905 370.07 7.46777C370.071 7.46649 370.072 7.46521 370.072 7.46393C370.073 7.46265 370.073 7.46137 370.074 7.46009C370.075 7.45881 370.075 7.45753 370.076 7.45625C370.077 7.45497 370.077 7.4537 370.078 7.45242C370.079 7.45114 370.079 7.44986 370.08 7.44858C370.08 7.44731 370.081 7.44603 370.082 7.44475C370.082 7.44348 370.083 7.4422 370.084 7.44093C370.084 7.43965 370.085 7.43838 370.086 7.4371C370.086 7.43583 370.087 7.43455 370.087 7.43328C370.088 7.432 370.089 7.43073 370.089 7.42945C370.09 7.42818 370.091 7.42691 370.091 7.42564C370.092 7.42436 370.093 7.42309 370.093 7.42182C370.094 7.42055 370.094 7.41928 370.095 7.418C370.096 7.41673 370.096 7.41546 370.097 7.41419C370.098 7.41292 370.098 7.41165 370.099 7.41038C370.1 7.40911 370.1 7.40784 370.101 7.40658C370.101 7.40531 370.102 7.40404 370.103 7.40277C370.103 7.4015 370.104 7.40024 370.105 7.39897C370.105 7.3977 370.106 7.39643 370.107 7.39517C370.107 7.3939 370.108 7.39264 370.108 7.39137C370.109 7.3901 370.11 7.38884 370.11 7.38757C370.111 7.38631 370.112 7.38504 370.112 7.38378C370.113 7.38251 370.113 7.38125 370.114 7.37999C370.115 7.37873 370.115 7.37746 370.116 7.3762C370.117 7.37494 370.117 7.37367 370.118 7.37241C370.119 7.37115 370.119 7.36989 370.12 7.36863C370.12 7.36737 370.121 7.36611 370.122 7.36485C370.122 7.36358 370.123 7.36233 370.124 7.36106C370.124 7.35981 370.125 7.35855 370.125 7.35729C370.126 7.35603 370.127 7.35477 370.127 7.35351C370.128 7.35225 370.129 7.351 370.129 7.34974C370.13 7.34848 370.13 7.34723 370.131 7.34597C370.132 7.34471 370.132 7.34346 370.133 7.3422C370.134 7.34094 370.134 7.33969 370.135 7.33843C370.136 7.33718 370.136 7.33592 370.137 7.33467C370.137 7.33342 370.138 7.33216 370.139 7.33091C370.139 7.32965 370.14 7.3284 370.141 7.32715C370.141 7.3259 370.142 7.32464 370.142 7.32339C370.143 7.32214 370.144 7.32089 370.144 7.31964C370.145 7.31839 370.146 7.31713 370.146 7.31588C370.147 7.31463 370.147 7.31338 370.148 7.31213C370.149 7.31088 370.149 7.30964 370.15 7.30839C370.151 7.30714 370.151 7.30589 370.152 7.30464C370.152 7.30339 370.153 7.30215 370.154 7.3009C370.154 7.29965 370.155 7.2984 370.156 7.29716C370.156 7.29591 370.157 7.29466 370.157 7.29342C370.158 7.29217 370.159 7.29093 370.159 7.28968C370.16 7.28843 370.161 7.28719 370.161 7.28595C370.162 7.2847 370.162 7.28346 370.163 7.28222C370.164 7.28097 370.164 7.27973 370.165 7.27848C370.165 7.27724 370.166 7.276 370.167 7.27476C370.167 7.27352 370.168 7.27227 370.169 7.27103C370.169 7.26979 370.17 7.26855 370.17 7.26731C370.171 7.26607 370.172 7.26483 370.172 7.26359C370.173 7.26235 370.174 7.26111 370.174 7.25987C370.175 7.25863 370.175 7.25739 370.176 7.25616C370.177 7.25492 370.177 7.25368 370.178 7.25244C370.178 7.2512 370.179 7.24997 370.18 7.24873C370.18 7.24749 370.181 7.24626 370.182 7.24502C370.182 7.24378 370.183 7.24255 370.183 7.24131C370.184 7.24008 370.185 7.23884 370.185 7.23761C370.186 7.23638 370.187 7.23514 370.187 7.23391C370.188 7.23267 370.188 7.23144 370.189 7.23021C370.19 7.22898 370.19 7.22774 370.191 7.22651C370.191 7.22528 370.192 7.22405 370.193 7.22281C370.193 7.22158 370.194 7.22035 370.195 7.21912C370.195 7.21789 370.196 7.21666 370.196 7.21543C370.197 7.2142 370.198 7.21297 370.198 7.21174C370.199 7.21051 370.199 7.20928 370.2 7.20806C370.201 7.20683 370.201 7.2056 370.202 7.20437C370.203 7.20314 370.203 7.20192 370.204 7.20069C370.204 7.19946 370.205 7.19824 370.206 7.19701C370.206 7.19579 370.207 7.19456 370.207 7.19333C370.208 7.19211 370.209 7.19088 370.209 7.18966C370.21 7.18843 370.211 7.18721 370.211 7.18599C370.212 7.18476 370.212 7.18354 370.213 7.18232C370.214 7.1811 370.214 7.17987 370.215 7.17865C370.215 7.17743 370.216 7.1762 370.217 7.17498C370.217 7.17376 370.218 7.17254 370.218 7.17132C370.219 7.1701 370.22 7.16888 370.22 7.16766C370.221 7.16644 370.221 7.16522 370.222 7.164C370.223 7.16278 370.223 7.16156 370.224 7.16035C370.225 7.15913 370.225 7.15791 370.226 7.15669C370.226 7.15547 370.227 7.15425 370.228 7.15304C370.228 7.15182 370.229 7.1506 370.229 7.14939C370.23 7.14817 370.231 7.14696 370.231 7.14574C370.232 7.14453 370.232 7.14331 370.233 7.1421C370.234 7.14088 370.234 7.13967 370.235 7.13845C370.235 7.13724 370.236 7.13603 370.237 7.13481C370.237 7.1336 370.238 7.13239 370.239 7.13118C370.239 7.12996 370.24 7.12875 370.24 7.12754C370.241 7.12633 370.242 7.12512 370.242 7.12391C370.243 7.1227 370.243 7.12148 370.244 7.12028C370.245 7.11906 370.245 7.11786 370.246 7.11665C370.246 7.11544 370.247 7.11423 370.248 7.11302C370.248 7.11181 370.249 7.1106 370.249 7.1094C370.25 7.10819 370.251 7.10698 370.251 7.10577C370.252 7.10457 370.252 7.10336 370.253 7.10215C370.254 7.10095 370.254 7.09974 370.255 7.09854C370.255 7.09733 370.256 7.09612 370.257 7.09492C370.257 7.09372 370.258 7.09251 370.258 7.09131C370.259 7.0901 370.26 7.0889 370.26 7.0877C370.261 7.08649 370.261 7.08529 370.262 7.08409C370.263 7.08289 370.263 7.08168 370.264 7.08048C370.264 7.07928 370.265 7.07808 370.266 7.07688C370.266 7.07568 370.267 7.07448 370.267 7.07328C370.268 7.07208 370.269 7.07088 370.269 7.06968C370.27 7.06848 370.27 7.06728 370.271 7.06608C370.272 7.06488 370.272 7.06368 370.273 7.06249C370.273 7.06129 370.274 7.06009 370.275 7.0589C370.275 7.0577 370.276 7.0565 370.276 7.0553C370.277 7.05411 370.278 7.05291 370.278 7.05172C370.279 7.05052 370.279 7.04933 370.28 7.04813C370.281 7.04694 370.281 7.04574 370.282 7.04455C370.282 7.04335 370.283 7.04216 370.284 7.04097C370.284 7.03977 370.285 7.03858 370.285 7.03739C370.286 7.0362 370.287 7.035 370.287 7.03381C370.288 7.03262 370.288 7.03143 370.289 7.03024C370.29 7.02905 370.29 7.02786 370.291 7.02667C370.291 7.02548 370.292 7.02429 370.293 7.0231C370.293 7.02191 370.294 7.02072 370.294 7.01953C370.295 7.01834 370.296 7.01715 370.296 7.01596C370.297 7.01478 370.297 7.01359 370.298 7.0124C370.298 7.01122 370.299 7.01003 370.3 7.00884C370.3 7.00766 370.301 7.00647 370.301 7.00528C370.302 7.0041 370.303 7.00291 370.303 7.00173C370.304 7.00054 370.304 6.99936 370.305 6.99817C370.306 6.99699 370.306 6.99581 370.307 6.99462C370.307 6.99344 370.308 6.99226 370.309 6.99108C370.309 6.98989 370.31 6.98871 370.31 6.98753C370.311 6.98635 370.312 6.98516 370.312 6.98398C370.313 6.9828 370.313 6.98162 370.314 6.98044C370.314 6.97926 370.315 6.97808 370.316 6.9769C370.316 6.97572 370.317 6.97454 370.317 6.97337C370.318 6.97219 370.319 6.97101 370.319 6.96983C370.32 6.96865 370.32 6.96747 370.321 6.9663C370.322 6.96512 370.322 6.96394 370.323 6.96277C370.323 6.96159 370.324 6.96041 370.324 6.95924C370.325 6.95806 370.326 6.95689 370.326 6.95571C370.327 6.95454 370.327 6.95336 370.328 6.95219C370.329 6.95102 370.329 6.94984 370.33 6.94867C370.33 6.94749 370.331 6.94632 370.332 6.94515C370.332 6.94398 370.333 6.9428 370.333 6.94163L364.967 4.25835C364.966 4.25952 364.966 4.26069 364.965 4.26187C364.964 4.26304 364.964 4.26421 364.963 4.26539C364.963 4.26656 364.962 4.26773 364.961 4.26891C364.961 4.27008 364.96 4.27126 364.96 4.27243C364.959 4.27361 364.958 4.27478 364.958 4.27596C364.957 4.27713 364.957 4.27831 364.956 4.27949C364.956 4.28066 364.955 4.28184 364.954 4.28302C364.954 4.28419 364.953 4.28537 364.953 4.28655C364.952 4.28773 364.951 4.2889 364.951 4.29008C364.95 4.29126 364.95 4.29244 364.949 4.29362C364.948 4.2948 364.948 4.29598 364.947 4.29716C364.947 4.29834 364.946 4.29952 364.946 4.3007C364.945 4.30188 364.944 4.30306 364.944 4.30425C364.943 4.30543 364.943 4.30661 364.942 4.30779C364.941 4.30898 364.941 4.31016 364.94 4.31134C364.94 4.31252 364.939 4.31371 364.938 4.31489C364.938 4.31608 364.937 4.31726 364.937 4.31845C364.936 4.31963 364.935 4.32082 364.935 4.322C364.934 4.32319 364.934 4.32437 364.933 4.32556C364.933 4.32675 364.932 4.32793 364.931 4.32912C364.931 4.33031 364.93 4.3315 364.93 4.33268C364.929 4.33387 364.928 4.33506 364.928 4.33625C364.927 4.33744 364.927 4.33863 364.926 4.33982C364.925 4.34101 364.925 4.3422 364.924 4.34339C364.924 4.34458 364.923 4.34577 364.922 4.34696C364.922 4.34815 364.921 4.34934 364.921 4.35053C364.92 4.35172 364.919 4.35291 364.919 4.35411C364.918 4.3553 364.918 4.35649 364.917 4.35769C364.916 4.35888 364.916 4.36007 364.915 4.36127C364.915 4.36246 364.914 4.36366 364.913 4.36485C364.913 4.36604 364.912 4.36724 364.912 4.36843C364.911 4.36963 364.91 4.37083 364.91 4.37202C364.909 4.37322 364.909 4.37442 364.908 4.37561C364.908 4.37681 364.907 4.37801 364.906 4.37921C364.906 4.3804 364.905 4.3816 364.905 4.3828C364.904 4.384 364.903 4.3852 364.903 4.3864C364.902 4.3876 364.901 4.3888 364.901 4.39C364.9 4.3912 364.9 4.3924 364.899 4.3936C364.898 4.3948 364.898 4.396 364.897 4.3972C364.897 4.3984 364.896 4.3996 364.896 4.40081C364.895 4.40201 364.894 4.40321 364.894 4.40442C364.893 4.40562 364.892 4.40682 364.892 4.40803C364.891 4.40923 364.891 4.41043 364.89 4.41164C364.889 4.41284 364.889 4.41405 364.888 4.41525C364.888 4.41646 364.887 4.41767 364.886 4.41887C364.886 4.42008 364.885 4.42128 364.885 4.42249C364.884 4.4237 364.883 4.42491 364.883 4.42611C364.882 4.42732 364.882 4.42853 364.881 4.42974C364.88 4.43095 364.88 4.43216 364.879 4.43336C364.879 4.43457 364.878 4.43578 364.877 4.43699C364.877 4.4382 364.876 4.43941 364.876 4.44062C364.875 4.44184 364.874 4.44305 364.874 4.44426C364.873 4.44547 364.873 4.44668 364.872 4.44789C364.871 4.44911 364.871 4.45032 364.87 4.45153C364.87 4.45275 364.869 4.45396 364.868 4.45517C364.868 4.45639 364.867 4.4576 364.866 4.45881C364.866 4.46003 364.865 4.46124 364.865 4.46246C364.864 4.46367 364.863 4.46489 364.863 4.46611C364.862 4.46732 364.862 4.46854 364.861 4.46976C364.86 4.47097 364.86 4.47219 364.859 4.47341C364.859 4.47463 364.858 4.47585 364.857 4.47706C364.857 4.47828 364.856 4.4795 364.856 4.48072C364.855 4.48194 364.854 4.48316 364.854 4.48438C364.853 4.4856 364.852 4.48682 364.852 4.48804C364.851 4.48926 364.851 4.49048 364.85 4.4917C364.849 4.49292 364.849 4.49415 364.848 4.49537C364.848 4.49659 364.847 4.49781 364.846 4.49903C364.846 4.50026 364.845 4.50148 364.845 4.50271C364.844 4.50393 364.843 4.50515 364.843 4.50638C364.842 4.5076 364.841 4.50883 364.841 4.51005C364.84 4.51128 364.84 4.5125 364.839 4.51373C364.838 4.51496 364.838 4.51618 364.837 4.51741C364.837 4.51864 364.836 4.51986 364.835 4.52109C364.835 4.52232 364.834 4.52355 364.834 4.52477C364.833 4.526 364.832 4.52723 364.832 4.52846C364.831 4.52969 364.83 4.53092 364.83 4.53215C364.829 4.53338 364.829 4.53461 364.828 4.53584C364.827 4.53707 364.827 4.5383 364.826 4.53953C364.826 4.54076 364.825 4.542 364.824 4.54323C364.824 4.54446 364.823 4.54569 364.822 4.54693C364.822 4.54816 364.821 4.54939 364.821 4.55063C364.82 4.55186 364.819 4.55309 364.819 4.55433C364.818 4.55556 364.818 4.5568 364.817 4.55803C364.816 4.55927 364.816 4.5605 364.815 4.56174C364.814 4.56297 364.814 4.56421 364.813 4.56545C364.813 4.56668 364.812 4.56792 364.811 4.56916C364.811 4.5704 364.81 4.57163 364.809 4.57287C364.809 4.57411 364.808 4.57535 364.808 4.57659C364.807 4.57783 364.806 4.57907 364.806 4.58031C364.805 4.58155 364.805 4.58279 364.804 4.58403C364.803 4.58527 364.803 4.58651 364.802 4.58775C364.801 4.58899 364.801 4.59023 364.8 4.59148C364.8 4.59272 364.799 4.59396 364.798 4.5952C364.798 4.59645 364.797 4.59769 364.796 4.59893C364.796 4.60018 364.795 4.60142 364.795 4.60266C364.794 4.60391 364.793 4.60515 364.793 4.6064C364.792 4.60764 364.791 4.60889 364.791 4.61014C364.79 4.61138 364.79 4.61263 364.789 4.61387C364.788 4.61512 364.788 4.61637 364.787 4.61761C364.786 4.61886 364.786 4.62011 364.785 4.62136C364.785 4.62261 364.784 4.62386 364.783 4.6251C364.783 4.62635 364.782 4.6276 364.781 4.62885C364.781 4.6301 364.78 4.63135 364.78 4.6326C364.779 4.63385 364.778 4.6351 364.778 4.63635C364.777 4.63761 364.776 4.63886 364.776 4.64011C364.775 4.64136 364.775 4.64261 364.774 4.64387C364.773 4.64512 364.773 4.64637 364.772 4.64763C364.771 4.64888 364.771 4.65013 364.77 4.65139C364.77 4.65264 364.769 4.6539 364.768 4.65515C364.768 4.65641 364.767 4.65766 364.766 4.65892C364.766 4.66017 364.765 4.66143 364.765 4.66269C364.764 4.66394 364.763 4.6652 364.763 4.66646C364.762 4.66772 364.761 4.66897 364.761 4.67023C364.76 4.67149 364.76 4.67275 364.759 4.67401C364.758 4.67526 364.758 4.67653 364.757 4.67778C364.756 4.67904 364.756 4.6803 364.755 4.68156C364.754 4.68283 364.754 4.68409 364.753 4.68535C364.753 4.68661 364.752 4.68787 364.751 4.68913C364.751 4.69039 364.75 4.69165 364.749 4.69292C364.749 4.69418 364.748 4.69544 364.748 4.69671C364.747 4.69797 364.746 4.69923 364.746 4.7005C364.745 4.70176 364.744 4.70303 364.744 4.70429C364.743 4.70556 364.742 4.70682 364.742 4.70809C364.741 4.70935 364.741 4.71062 364.74 4.71189C364.739 4.71315 364.739 4.71442 364.738 4.71569C364.737 4.71695 364.737 4.71822 364.736 4.71949C364.736 4.72076 364.735 4.72203 364.734 4.7233C364.734 4.72456 364.733 4.72583 364.732 4.7271C364.732 4.72837 364.731 4.72964 364.73 4.73091C364.73 4.73218 364.729 4.73345 364.729 4.73472C364.728 4.73599 364.727 4.73727 364.727 4.73854C364.726 4.73981 364.725 4.74108 364.725 4.74236C364.724 4.74363 364.723 4.7449 364.723 4.74617C364.722 4.74745 364.722 4.74872 364.721 4.75C364.72 4.75127 364.72 4.75254 364.719 4.75382C364.718 4.75509 364.718 4.75637 364.717 4.75764C364.716 4.75892 364.716 4.7602 364.715 4.76147C364.715 4.76275 364.714 4.76403 364.713 4.7653C364.713 4.76658 364.712 4.76786 364.711 4.76914C364.711 4.77041 364.71 4.77169 364.709 4.77297C364.709 4.77425 364.708 4.77553 364.707 4.77681C364.707 4.77809 364.706 4.77937 364.706 4.78065C364.705 4.78193 364.704 4.78321 364.704 4.78449C364.703 4.78577 364.702 4.78705 364.702 4.78833C364.701 4.78962 364.7 4.7909 364.7 4.79218C364.699 4.79346 364.699 4.79474 364.698 4.79603C364.697 4.79731 364.697 4.7986 364.696 4.79988C364.695 4.80116 364.695 4.80245 364.694 4.80373C364.693 4.80502 364.693 4.8063 364.692 4.80759C364.691 4.80887 364.691 4.81016 364.69 4.81145C364.69 4.81273 364.689 4.81402 364.688 4.81531C364.688 4.81659 364.687 4.81788 364.686 4.81917C364.686 4.82046 364.685 4.82174 364.684 4.82303C364.684 4.82432 364.683 4.82561 364.682 4.8269C364.682 4.82819 364.681 4.82948 364.681 4.83077C364.68 4.83206 364.679 4.83335 364.679 4.83464C364.678 4.83593 364.677 4.83722 364.677 4.83851C364.676 4.83981 364.675 4.8411 364.675 4.84239C364.674 4.84368 364.673 4.84498 364.673 4.84627C364.672 4.84756 364.671 4.84886 364.671 4.85015C364.67 4.85144 364.67 4.85274 364.669 4.85403C364.668 4.85533 364.668 4.85662 364.667 4.85792C364.666 4.85921 364.666 4.86051 364.665 4.8618C364.664 4.8631 364.664 4.8644 364.663 4.8657C364.662 4.86699 364.662 4.86829 364.661 4.86959C364.66 4.87089 364.66 4.87218 364.659 4.87348C364.659 4.87478 364.658 4.87608 364.657 4.87738C364.657 4.87868 364.656 4.87998 364.655 4.88128C364.655 4.88258 364.654 4.88388 364.653 4.88518C364.653 4.88648 364.652 4.88778 364.651 4.88908C364.651 4.89038 364.65 4.89169 364.649 4.89299C364.649 4.89429 364.648 4.89559 364.647 4.8969C364.647 4.8982 364.646 4.8995 364.646 4.90081C364.645 4.90211 364.644 4.90342 364.644 4.90472C364.643 4.90602 364.642 4.90733 364.642 4.90863C364.641 4.90994 364.64 4.91125 364.64 4.91255C364.639 4.91386 364.638 4.91516 364.638 4.91647C364.637 4.91778 364.636 4.91909 364.636 4.92039C364.635 4.9217 364.634 4.92301 364.634 4.92432C364.633 4.92563 364.632 4.92694 364.632 4.92824C364.631 4.92955 364.63 4.93086 364.63 4.93217C364.629 4.93348 364.629 4.93479 364.628 4.9361C364.627 4.93741 364.627 4.93873 364.626 4.94004C364.625 4.94135 364.625 4.94266 364.624 4.94397C364.623 4.94529 364.623 4.9466 364.622 4.94791C364.621 4.94922 364.621 4.95054 364.62 4.95185C364.619 4.95317 364.619 4.95448 364.618 4.95579C364.617 4.95711 364.617 4.95842 364.616 4.95974C364.615 4.96105 364.615 4.96237 364.614 4.96369C364.613 4.965 364.613 4.96632 364.612 4.96763C364.611 4.96895 364.611 4.97027 364.61 4.97159C364.609 4.9729 364.609 4.97422 364.608 4.97554C364.607 4.97686 364.607 4.97818 364.606 4.9795C364.605 4.98082 364.605 4.98214 364.604 4.98346C364.604 4.98478 364.603 4.9861 364.602 4.98742C364.602 4.98874 364.601 4.99006 364.6 4.99138C364.6 4.9927 364.599 4.99402 364.598 4.99534C364.598 4.99667 364.597 4.99799 364.596 4.99931C364.596 5.00064 364.595 5.00196 364.594 5.00328C364.594 5.00461 364.593 5.00593 364.592 5.00725C364.592 5.00858 364.591 5.0099 364.59 5.01123C364.59 5.01255 364.589 5.01388 364.588 5.01521C364.588 5.01653 364.587 5.01786 364.586 5.01918C364.586 5.02051 364.585 5.02184 364.584 5.02317C364.584 5.02449 364.583 5.02582 364.582 5.02715C364.582 5.02848 364.581 5.02981 364.58 5.03114C364.58 5.03246 364.579 5.03379 364.578 5.03512C364.578 5.03645 364.577 5.03778 364.576 5.03911C364.576 5.04045 364.575 5.04178 364.574 5.04311C364.574 5.04444 364.573 5.04577 364.572 5.0471C364.572 5.04844 364.571 5.04977 364.57 5.0511C364.57 5.05243 364.569 5.05377 364.568 5.0551C364.568 5.05643 364.567 5.05777 364.566 5.0591C364.566 5.06044 364.565 5.06177 364.564 5.06311C364.564 5.06444 364.563 5.06578 364.562 5.06711C364.562 5.06845 364.561 5.06978 364.56 5.07112C364.56 5.07246 364.559 5.0738 364.558 5.07513C364.558 5.07647 364.557 5.07781 364.556 5.07915C364.556 5.08048 364.555 5.08182 364.554 5.08316C364.554 5.0845 364.553 5.08584 364.552 5.08718C364.552 5.08852 364.551 5.08986 364.55 5.0912C364.55 5.09254 364.549 5.09388 364.548 5.09522C364.548 5.09656 364.547 5.09791 364.546 5.09925C364.546 5.10059 364.545 5.10193 364.544 5.10328C364.544 5.10462 364.543 5.10596 364.542 5.1073C364.542 5.10865 364.541 5.10999 364.54 5.11134C364.54 5.11268 364.539 5.11403 364.538 5.11537C364.538 5.11671 364.537 5.11806 364.536 5.11941C364.536 5.12075 364.535 5.1221 364.534 5.12345C364.534 5.12479 364.533 5.12614 364.532 5.12749C364.531 5.12883 364.531 5.13018 364.53 5.13153C364.529 5.13288 364.529 5.13423 364.528 5.13557C364.527 5.13692 364.527 5.13827 364.526 5.13962C364.525 5.14097 364.525 5.14232 364.524 5.14367C364.523 5.14502 364.523 5.14637 364.522 5.14772C364.521 5.14908 364.521 5.15043 364.52 5.15178C364.519 5.15313 364.519 5.15448 364.518 5.15584C364.517 5.15719 364.517 5.15854 364.516 5.15989C364.515 5.16125 364.515 5.1626 364.514 5.16396C364.513 5.16531 364.513 5.16667 364.512 5.16802C364.511 5.16938 364.511 5.17073 364.51 5.17209C364.509 5.17344 364.508 5.1748 364.508 5.17616C364.507 5.17751 364.506 5.17887 364.506 5.18023C364.505 5.18158 364.504 5.18294 364.504 5.1843C364.503 5.18566 364.502 5.18702 364.502 5.18837C364.501 5.18973 364.5 5.19109 364.5 5.19245C364.499 5.19381 364.498 5.19517 364.498 5.19653C364.497 5.19789 364.496 5.19925 364.496 5.20061C364.495 5.20197 364.494 5.20334 364.494 5.2047C364.493 5.20606 364.492 5.20742 364.492 5.20878C364.491 5.21015 364.49 5.21151 364.489 5.21287C364.489 5.21424 364.488 5.2156 364.487 5.21696C364.487 5.21833 364.486 5.21969 364.485 5.22106C364.485 5.22242 364.484 5.22379 364.483 5.22515C364.483 5.22652 364.482 5.22789 364.481 5.22925C364.481 5.23062 364.48 5.23199 364.479 5.23335C364.479 5.23472 364.478 5.23609 364.477 5.23746C364.477 5.23882 364.476 5.24019 364.475 5.24156C364.474 5.24293 364.474 5.2443 364.473 5.24567C364.472 5.24704 364.472 5.24841 364.471 5.24978C364.47 5.25115 364.47 5.25252 364.469 5.25389C364.468 5.25526 364.468 5.25663 364.467 5.258C364.466 5.25937 364.466 5.26075 364.465 5.26212C364.464 5.26349 364.463 5.26487 364.463 5.26624C364.462 5.26761 364.461 5.26899 364.461 5.27036C364.46 5.27173 364.459 5.27311 364.459 5.27448C364.458 5.27586 364.457 5.27723 364.457 5.27861C364.456 5.27998 364.455 5.28136 364.455 5.28274C364.454 5.28411 364.453 5.28549 364.452 5.28687C364.452 5.28824 364.451 5.28962 364.45 5.291C364.45 5.29238 364.449 5.29375 364.448 5.29513C364.448 5.29651 364.447 5.29789 364.446 5.29927C364.446 5.30065 364.445 5.30203 364.444 5.30341C364.444 5.30479 364.443 5.30617 364.442 5.30755C364.441 5.30893 364.441 5.31031 364.44 5.3117C364.439 5.31308 364.439 5.31446 364.438 5.31584C364.437 5.31722 364.437 5.31861 364.436 5.31999C364.435 5.32137 364.435 5.32276 364.434 5.32414C364.433 5.32553 364.432 5.32691 364.432 5.32829C364.431 5.32968 364.43 5.33106 364.43 5.33245C364.429 5.33384 364.428 5.33522 364.428 5.33661C364.427 5.33799 364.426 5.33938 364.426 5.34077C364.425 5.34215 364.424 5.34354 364.423 5.34493C364.423 5.34632 364.422 5.34771 364.421 5.34909C364.421 5.35048 364.42 5.35187 364.419 5.35326C364.419 5.35465 364.418 5.35604 364.417 5.35743C364.417 5.35882 364.416 5.36021 364.415 5.3616C364.414 5.36299 364.414 5.36438 364.413 5.36577C364.412 5.36717 364.412 5.36856 364.411 5.36995C364.41 5.37134 364.41 5.37274 364.409 5.37413C364.408 5.37552 364.407 5.37691 364.407 5.37831C364.406 5.3797 364.405 5.3811 364.405 5.38249C364.404 5.38389 364.403 5.38528 364.403 5.38668C364.402 5.38807 364.401 5.38947 364.4 5.39087C364.4 5.39226 364.399 5.39366 364.398 5.39505C364.398 5.39645 364.397 5.39785 364.396 5.39925C364.396 5.40064 364.395 5.40204 364.394 5.40344C364.393 5.40484 364.393 5.40624 364.392 5.40764C364.391 5.40904 364.391 5.41044 364.39 5.41184C364.389 5.41324 364.389 5.41464 364.388 5.41604C364.387 5.41744 364.386 5.41884 364.386 5.42024C364.385 5.42164 364.384 5.42304 364.384 5.42445C364.383 5.42585 364.382 5.42725 364.382 5.42865C364.381 5.43006 364.38 5.43146 364.379 5.43287C364.379 5.43427 364.378 5.43567 364.377 5.43708C364.377 5.43848 364.376 5.43989 364.375 5.44129C364.375 5.4427 364.374 5.4441 364.373 5.44551C364.372 5.44691 364.372 5.44832 364.371 5.44973C364.37 5.45114 364.37 5.45254 364.369 5.45395C364.368 5.45536 364.368 5.45677 364.367 5.45817C364.366 5.45958 364.365 5.46099 364.365 5.4624C364.364 5.46381 364.363 5.46522 364.363 5.46663C364.362 5.46804 364.361 5.46945 364.36 5.47086C364.36 5.47227 364.359 5.47368 364.358 5.47509C364.358 5.47651 364.357 5.47792 364.356 5.47933C364.356 5.48074 364.355 5.48215 364.354 5.48357C364.353 5.48498 364.353 5.48639 364.352 5.48781C364.351 5.48922 364.351 5.49063 364.35 5.49205C364.349 5.49346 364.348 5.49488 364.348 5.49629C364.347 5.49771 364.346 5.49912 364.346 5.50054C364.345 5.50196 364.344 5.50337 364.344 5.50479C364.343 5.50621 364.342 5.50762 364.341 5.50904C364.341 5.51046 364.34 5.51188 364.339 5.51329C364.339 5.51471 364.338 5.51613 364.337 5.51755C364.336 5.51897 364.336 5.52039 364.335 5.52181C364.334 5.52323 364.334 5.52465 364.333 5.52607C364.332 5.52749 364.331 5.52891 364.331 5.53033C364.33 5.53175 364.329 5.53318 364.329 5.5346C364.328 5.53602 364.327 5.53744 364.326 5.53887C364.326 5.54029 364.325 5.54171 364.324 5.54313C364.324 5.54456 364.323 5.54598 364.322 5.54741C364.321 5.54883 364.321 5.55026 364.32 5.55168C364.319 5.55311 364.319 5.55453 364.318 5.55596C364.317 5.55738 364.316 5.55881 364.316 5.56024C364.315 5.56166 364.314 5.56309 364.314 5.56452C364.313 5.56595 364.312 5.56737 364.311 5.5688C364.311 5.57023 364.31 5.57166 364.309 5.57309C364.309 5.57452 364.308 5.57595 364.307 5.57738C364.306 5.57881 364.306 5.58024 364.305 5.58167C364.304 5.5831 364.304 5.58453 364.303 5.58596C364.302 5.58739 364.301 5.58882 364.301 5.59025C364.3 5.59169 364.299 5.59312 364.299 5.59455C364.298 5.59598 364.297 5.59742 364.296 5.59885C364.296 5.60028 364.295 5.60172 364.294 5.60315C364.294 5.60459 364.293 5.60602 364.292 5.60746C364.291 5.60889 364.291 5.61033 364.29 5.61176C364.289 5.6132 364.289 5.61464 364.288 5.61607C364.287 5.61751 364.286 5.61895 364.286 5.62038C364.285 5.62182 364.284 5.62326 364.284 5.6247C364.283 5.62613 364.282 5.62757 364.281 5.62901C364.281 5.63045 364.28 5.63189 364.279 5.63333C364.279 5.63477 364.278 5.63621 364.277 5.63765C364.276 5.63909 364.276 5.64053 364.275 5.64197C364.274 5.64341 364.273 5.64486 364.273 5.6463C364.272 5.64774 364.271 5.64918 364.271 5.65062C364.27 5.65207 364.269 5.65351 364.268 5.65495C364.268 5.6564 364.267 5.65784 364.266 5.65928C364.266 5.66073 364.265 5.66217 364.264 5.66362C364.263 5.66506 364.263 5.66651 364.262 5.66796C364.261 5.6694 364.26 5.67085 364.26 5.67229C364.259 5.67374 364.258 5.67519 364.258 5.67663C364.257 5.67808 364.256 5.67953 364.255 5.68098C364.255 5.68242 364.254 5.68387 364.253 5.68532C364.253 5.68677 364.252 5.68822 364.251 5.68967C364.25 5.69112 364.25 5.69257 364.249 5.69402C364.248 5.69547 364.247 5.69692 364.247 5.69837C364.246 5.69982 364.245 5.70127 364.245 5.70273C364.244 5.70418 364.243 5.70563 364.242 5.70708C364.242 5.70854 364.241 5.70999 364.24 5.71144C364.239 5.7129 364.239 5.71435 364.238 5.7158C364.237 5.71726 364.237 5.71871 364.236 5.72017C364.235 5.72162 364.234 5.72308 364.234 5.72453C364.233 5.72599 364.232 5.72744 364.231 5.7289C364.231 5.73036 364.23 5.73181 364.229 5.73327C364.229 5.73473 364.228 5.73619 364.227 5.73764C364.226 5.7391 364.226 5.74056 364.225 5.74202C364.224 5.74348 364.223 5.74494 364.223 5.7464C364.222 5.74786 364.221 5.74932 364.221 5.75078C364.22 5.75224 364.219 5.7537 364.218 5.75516C364.218 5.75662 364.217 5.75808 364.216 5.75954C364.215 5.761 364.215 5.76247 364.214 5.76393C364.213 5.76539 364.212 5.76686 364.212 5.76832C364.211 5.76978 364.21 5.77124 364.21 5.77271C364.209 5.77417 364.208 5.77564 364.207 5.7771C364.207 5.77857 364.206 5.78003 364.205 5.7815C364.204 5.78296 364.204 5.78443 364.203 5.7859C364.202 5.78736 364.201 5.78883 364.201 5.7903C364.2 5.79176 364.199 5.79323 364.199 5.7947C364.198 5.79617 364.197 5.79763 364.196 5.7991C364.196 5.80057 364.195 5.80204 364.194 5.80351C364.193 5.80498 364.193 5.80645 364.192 5.80792C364.191 5.80939 364.19 5.81086 364.19 5.81233C364.189 5.8138 364.188 5.81527 364.188 5.81675C364.187 5.81822 364.186 5.81969 364.185 5.82116C364.185 5.82263 364.184 5.82411 364.183 5.82558C364.182 5.82705 364.182 5.82853 364.181 5.83C364.18 5.83148 364.179 5.83295 364.179 5.83442C364.178 5.8359 364.177 5.83737 364.176 5.83885C364.176 5.84033 364.175 5.8418 364.174 5.84328C364.174 5.84475 364.173 5.84623 364.172 5.84771C364.171 5.84918 364.171 5.85066 364.17 5.85214C364.169 5.85362 364.168 5.85509 364.168 5.85658C364.167 5.85805 364.166 5.85953 364.165 5.86101C364.165 5.86249 364.164 5.86397 364.163 5.86545C364.162 5.86693 364.162 5.86841 364.161 5.86989C364.16 5.87137 364.159 5.87285 364.159 5.87434C364.158 5.87582 364.157 5.8773 364.156 5.87878C364.156 5.88026 364.155 5.88175 364.154 5.88323C364.154 5.88471 364.153 5.8862 364.152 5.88768C364.151 5.88916 364.151 5.89065 364.15 5.89213C364.149 5.89362 364.148 5.8951 364.148 5.89659C364.147 5.89807 364.146 5.89956 364.145 5.90105C364.145 5.90253 364.144 5.90402 364.143 5.90551C364.142 5.90699 364.142 5.90848 364.141 5.90997C364.14 5.91146 364.139 5.91294 364.139 5.91443C364.138 5.91592 364.137 5.91741 364.136 5.9189C364.136 5.92039 364.135 5.92188 364.134 5.92337C364.133 5.92486 364.133 5.92635 364.132 5.92784C364.131 5.92933 364.13 5.93082 364.13 5.93231C364.129 5.9338 364.128 5.9353 364.128 5.93679C364.127 5.93828 364.126 5.93977 364.125 5.94127C364.125 5.94276 364.124 5.94425 364.123 5.94575C364.122 5.94724 364.122 5.94873 364.121 5.95023C364.12 5.95172 364.119 5.95322 364.119 5.95471C364.118 5.95621 364.117 5.9577 364.116 5.9592C364.116 5.9607 364.115 5.96219 364.114 5.96369C364.113 5.96519 364.113 5.96668 364.112 5.96818C364.111 5.96968 364.11 5.97118 364.11 5.97268C364.109 5.97417 364.108 5.97567 364.107 5.97717C364.107 5.97867 364.106 5.98017 364.105 5.98167C364.104 5.98317 364.104 5.98467 364.103 5.98617C364.102 5.98767 364.101 5.98917 364.101 5.99067C364.1 5.99218 364.099 5.99368 364.098 5.99518C364.098 5.99668 364.097 5.99819 364.096 5.99969C364.095 6.00119 364.095 6.0027 364.094 6.0042C364.093 6.0057 364.092 6.00721 364.092 6.00871C364.091 6.01022 364.09 6.01172 364.089 6.01323C364.089 6.01473 364.088 6.01624 364.087 6.01774C364.086 6.01925 364.086 6.02076 364.085 6.02226C364.084 6.02377 364.083 6.02528 364.083 6.02678C364.082 6.02829 364.081 6.0298 364.08 6.03131C364.079 6.03282 364.079 6.03432 364.078 6.03583C364.077 6.03734 364.076 6.03885 364.076 6.04036C364.075 6.04187 364.074 6.04338 364.073 6.04489C364.073 6.0464 364.072 6.04791 364.071 6.04943C364.07 6.05094 364.07 6.05245 364.069 6.05396C364.068 6.05547 364.067 6.05699 364.067 6.0585C364.066 6.06001 364.065 6.06153 364.064 6.06304C364.064 6.06455 364.063 6.06607 364.062 6.06758C364.061 6.0691 364.061 6.07061 364.06 6.07212C364.059 6.07364 364.058 6.07516 364.058 6.07667C364.057 6.07819 364.056 6.0797 364.055 6.08122C364.055 6.08274 364.054 6.08426 364.053 6.08577C364.052 6.08729 364.051 6.08881 364.051 6.09033C364.05 6.09184 364.049 6.09336 364.048 6.09488C364.048 6.0964 364.047 6.09792 364.046 6.09944C364.045 6.10096 364.045 6.10248 364.044 6.104C364.043 6.10552 364.042 6.10704 364.042 6.10856C364.041 6.11008 364.04 6.11161 364.039 6.11313C364.039 6.11465 364.038 6.11617 364.037 6.11769C364.036 6.11922 364.036 6.12074 364.035 6.12226C364.034 6.12379 364.033 6.12531 364.032 6.12684C364.032 6.12836 364.031 6.12989 364.03 6.13141C364.029 6.13294 364.029 6.13446 364.028 6.13599C364.027 6.13751 364.026 6.13904 364.026 6.14057C364.025 6.14209 364.024 6.14362 364.023 6.14515C364.023 6.14668 364.022 6.1482 364.021 6.14973C364.02 6.15126 364.02 6.15279 364.019 6.15432C364.018 6.15585 364.017 6.15738 364.016 6.15891C364.016 6.16043 364.015 6.16196 364.014 6.16349C364.013 6.16503 364.013 6.16656 364.012 6.16809C364.011 6.16962 364.01 6.17115 364.01 6.17268C364.009 6.17421 364.008 6.17575 364.007 6.17728C364.007 6.17881 364.006 6.18035 364.005 6.18188C364.004 6.18341 364.003 6.18495 364.003 6.18648C364.002 6.18801 364.001 6.18955 364 6.19108C364 6.19262 363.999 6.19415 363.998 6.19569C363.997 6.19723 363.997 6.19876 363.996 6.2003C363.995 6.20184 363.994 6.20337 363.993 6.20491C363.993 6.20645 363.992 6.20798 363.991 6.20952C363.99 6.21106 363.99 6.2126 363.989 6.21414C363.988 6.21568 363.987 6.21722 363.987 6.21876C363.986 6.22029 363.985 6.22183 363.984 6.22338C363.983 6.22492 363.983 6.22646 363.982 6.228C363.981 6.22954 363.98 6.23108 363.98 6.23262C363.979 6.23416 363.978 6.23571 363.977 6.23725C363.977 6.23879 363.976 6.24034 363.975 6.24188C363.974 6.24342 363.973 6.24496 363.973 6.24651C363.972 6.24805 363.971 6.2496 363.97 6.25114C363.97 6.25269 363.969 6.25423 363.968 6.25578C363.967 6.25732 363.966 6.25887 363.966 6.26042C363.965 6.26196 363.964 6.26351 363.963 6.26506C363.963 6.26661 363.962 6.26815 363.961 6.2697C363.96 6.27125 363.96 6.2728 363.959 6.27435C363.958 6.27589 363.957 6.27744 363.956 6.27899C363.956 6.28054 363.955 6.28209 363.954 6.28364C363.953 6.28519 363.953 6.28675 363.952 6.2883C363.951 6.28985 363.95 6.2914 363.949 6.29295C363.949 6.2945 363.948 6.29605 363.947 6.29761C363.946 6.29916 363.946 6.30071 363.945 6.30227C363.944 6.30382 363.943 6.30537 363.942 6.30693C363.942 6.30848 363.941 6.31003 363.94 6.31159C363.939 6.31314 363.939 6.3147 363.938 6.31626C363.937 6.31781 363.936 6.31937 363.935 6.32092C363.935 6.32248 363.934 6.32404 363.933 6.32559C363.932 6.32715 363.932 6.32871 363.931 6.33027C363.93 6.33182 363.929 6.33338 363.928 6.33494C363.928 6.3365 363.927 6.33806 363.926 6.33962C363.925 6.34118 363.925 6.34274 363.924 6.3443C363.923 6.34586 363.922 6.34742 363.921 6.34898C363.921 6.35054 363.92 6.3521 363.919 6.35366C363.918 6.35522 363.918 6.35679 363.917 6.35835L369.283 9.04163ZM370.407 6.78175L371.757 3.63175L366.243 1.26824L364.893 4.41823L370.407 6.78175ZM367.963 5.26502L385.063 11.565L387.137 5.93497L370.037 -0.365034L367.963 5.26502ZM389.1 8.74999V3.34999H383.1V8.74999H389.1ZM386.1 6.34999H440.1V0.349993H386.1V6.34999ZM437.268 4.33932L444.918 26.2393L450.582 24.2607L442.932 2.36067L437.268 4.33932ZM346.5 25.1V28.25H352.5V25.1H346.5ZM349.5 31.25H354.9V25.25H349.5V31.25ZM357.341 29.9937L359.591 26.8437L354.709 23.3563L352.459 26.5063L357.341 29.9937ZM357.15 22.1H349.5V28.1H357.15V22.1ZM411.15 28.7V46.55H417.15V28.7H411.15ZM416.849 47.8607C420.339 40.6749 422.287 34.2751 422.399 28.7612L416.401 28.6388C416.313 32.9249 414.761 38.4251 411.451 45.2393L416.849 47.8607ZM419.4 25.7H414.15V31.7H419.4V25.7ZM415.332 83.8074C417.207 83.0038 418.78 81.7771 420 80.15L415.2 76.55C414.62 77.3229 413.893 77.8962 412.968 78.2926L415.332 83.8074ZM420 80.15C421.341 78.3626 421.95 76.2585 421.95 74H415.95C415.95 75.1415 415.659 75.9373 415.2 76.55L420 80.15ZM421.95 74C421.95 69.6874 419.943 65.1643 416.576 60.5355L411.724 64.0645C414.757 68.2357 415.95 71.5126 415.95 74H421.95ZM411.15 62.3V81.05H417.15V62.3H411.15ZM338.1 76.4H354.6V70.4H338.1V76.4ZM357.6 73.4V69.5H351.6V73.4H357.6ZM354.6 66.5H338.1V72.5H354.6V66.5ZM335.1 69.5V73.4H341.1V69.5H335.1ZM335.1 90.2V94.25H341.1V90.2H335.1ZM338.1 97.25H354.6V91.25H338.1V97.25ZM357.6 94.25V90.2H351.6V94.25H357.6ZM354.6 87.2H338.1V93.2H354.6V87.2Z" fill="#990DCE"/>
</svg>
