<svg width="96" height="100" viewBox="0 0 96 100" fill="none" xmlns="http://www.w3.org/2000/svg">
<path d="M53.4101 31.9276L53.5779 32.833L54.2459 32.1991L75.7769 11.7684L62.9995 38.5591L62.6032 39.3902L63.5161 39.27L92.9439 35.3968L66.8597 49.5606L66.0505 50L66.8597 50.4394L92.9439 64.6032L63.5161 60.73L62.6032 60.6098L62.9995 61.4409L75.7769 88.2316L54.2459 67.8009L53.5779 67.167L53.4101 68.0724L48 97.2568L42.5899 68.0724L42.4221 67.167L41.7541 67.8009L20.2231 88.2316L33.0005 61.4409L33.3968 60.6098L32.4839 60.73L3.0561 64.6032L29.1403 50.4394L29.9495 50L29.1403 49.5606L3.05609 35.3968L32.4839 39.27L33.3968 39.3902L33.0005 38.5591L20.2231 11.7684L41.7541 32.1991L42.4221 32.833L42.5899 31.9276L48 2.74317L53.4101 31.9276Z" fill="#2FDD41" stroke="#2FDD41"/>
</svg>
